<?xml version="1.0" standalone="no"?>
<!DOCTYPE svg PUBLIC "-//W3C//DTD SVG 1.1//EN" "http://www.w3.org/Graphics/SVG/1.1/DTD/svg11.dtd" >
<!--
2013-9-30: Created.
-->
<svg>
<metadata>
Created by iconfont
</metadata>
<defs>

<font id="iconfont" horiz-adv-x="1024" >
  <font-face
    font-family="iconfont"
    font-weight="500"
    font-stretch="normal"
    units-per-em="1024"
    ascent="896"
    descent="-128"
  />
    <missing-glyph />
    
    <glyph glyph-name="shuzhiluansheng" unicode="&#59186;" d="M907.636364-128v46.545455h116.363636v-46.545455H907.636364zM325.818182 58.181818h698.181818v-46.545454H325.818182v46.545454z m581.818182 698.181818h116.363636v-46.545454H907.636364v46.545454zM325.818182 896h698.181818v-46.545455H325.818182V896zM0 896h116.363636v-46.545455H0V896z m698.181818-186.181818H0v46.545454h698.181818v-46.545454zM116.363636 11.636364H0v46.545454h116.363636v-46.545454z m651.706182 509.184v-285.195637L523.636364 93.021091 279.272727 235.624727V520.820364l244.363637 142.615272z m-46.196363-55.784728l-99.246546-65.256727-25.192727 39.133091 102.795636 67.595636L523.636364 609.524364l-173.579637-101.236364L546.909091 391.912727v-231.400727l174.917818 102.062545v202.472728zM501.085091 160.116364V364.823273l-175.592727 103.749818v-205.963636zM698.181818-128H0v46.545455h698.181818v-46.545455z"  horiz-adv-x="1024" />

    
    <glyph glyph-name="gongyexieyi" unicode="&#59185;" d="M291.200529 860.462017v-255.662546H35.537983L291.200529 860.462017zM1021.977052-127.325091h-503.074163l175.489095 197.557422h72.213048l163.786724 162.694347-83.253022 82.695212a93.409797 93.409797 0 0 0-116.895888 17.896378l-110.922682-63.613489-29.970623-111.120239-89.447028-51.306825-23.404744 40.266851 72.666268 41.661374 20.673803 76.652279-2.010437 3.463066-77.163605 20.534351-72.666268-41.672995-23.393122 40.266851 89.447027 51.295203 111.875606-29.784687 112.630972 64.601277A92.154727 92.154727 0 0 0 706.094356 395.621025c0 51.26034 41.986763 92.968198 93.595734 92.968198 51.608971 0 93.595734-41.707858 93.595733-92.968198a91.829338 91.829338 0 0 0-13.05041-47.134877L996.585113 232.926678 832.786768 70.232331h189.190284v-197.557422zM799.69009 442.105124c-25.798675 0-46.797867-20.848118-46.797867-46.484099s20.999192-46.484099 46.797867-46.484099c25.810296 0 46.797867 20.848118 46.797867 46.484099s-20.987571 46.484099-46.797867 46.484099z m175.489095-418.356893H715.519007l-92.910093-104.589223h352.570271v104.589223zM140.127207 476.968198h185.936396v-46.484099H140.127207v46.484099z m604.293289 94.130301V848.840992H326.063603v-278.904595H47.159008v-650.777389h255.662546v-46.484099H0.674909V616.420496L279.579504 895.325091h511.325091v-325.388694h-46.542204l0.058105 1.162102zM66.415046 616.420496H279.579504V829.584954L66.415046 616.420496z"  horiz-adv-x="1024" />

    
    <glyph glyph-name="5Gzuwang" unicode="&#59183;" d="M46.582479 58.207736h523.594711l127.989818-139.625257H46.582479V58.207736zM921.718679 81.862581v38.769279h102.170781v-100.483642c-20.106037-25.528151-53.837172-43.295465-95.352414-43.295465-70.708557 0-120.3337 51.370459-120.3337 116.307838 0 64.949015 48.973559 116.319474 119.682115 116.319474 33.731135 0 62.598657-12.601179 83.030486-32.311611l-28.215937-29.728544c-13.625098 13.578556-32.765393 23.270876-55.140341 23.270876-43.144204 0-75.57217-34.568886-75.57217-77.550195 0-43.935414 33.731135-77.538559 77.515288-77.538559 20.757621 0 37.629007 7.109253 50.60252 17.453157v48.787392h-58.386628z m-208.157986 220.607905l-33.323895 33.033008c147.16502 145.396433 147.374458 381.339846 0.442147 526.980624a7.923733 7.923733 0 0 1-0.442147 0.442146L713.560693 895.959273c165.607189-163.617529 165.828263-429.103319 0.500324-592.988463a10.146102 10.146102 0 0 0-0.500324-0.500324z m-84.368561 82.774506l-0.360699-0.349063-33.323894 33.033008a254.304133 254.304133 0 0 1 0.302521 362.280998l-0.302521 0.302522 33.323894 33.033008a300.636447 300.636447 0 0 0 0.360699-428.300473z m-83.519174 82.297453l-0.232709-0.232709-33.33553 33.033009a138.67115 138.67115 0 0 1 0 197.744269l33.33553 33.033008a185.026735 185.026735 0 0 0 0.232709-263.577577zM151.301421 11.665983v-46.541752H104.759669v46.541752h46.541752z m295.78447 548.366559V104.749488h101.111957a260.05204 260.05204 0 0 1 17.54624-46.541752H46.582479v-139.625257h660.6369l45.366573-46.541752H0.040727V104.749488h400.654673V560.032542a46.390491 46.390491 0 0 0-23.189428 40.084084c0 25.714318 20.769257 46.541752 46.390491 46.541752a46.460304 46.460304 0 0 0 46.378856-46.541752 46.390491 46.390491 0 0 0-23.189428-40.084084z m-153.762313-91.408001l-0.232709 0.221073c-72.244435 72.628404-72.151351 190.274318 0.232709 262.774732l32.765393-32.928289-0.162896-0.162897c-54.162964-54.430579-54.093151-142.627199 0.162896-196.97633l-32.765393-32.928289z m-49.229538-49.229539l-32.777029-32.939925-0.349063 0.360699c-117.413205 118.006612-117.250309 309.176859 0.349063 426.985669l32.777029-32.92829-0.302522-0.314157c-99.320099-99.808787-99.180474-261.518105 0.302522-361.163996z m-83.321372-82.181098l-32.765393-32.92829a20.059495 20.059495 0 0 0-0.488689 0.500324C-35.040118 468.170759-34.819045 732.842067 128.007275 895.959273l32.765393-32.92829-0.430511-0.442147c-144.465598-145.198631-144.267796-380.420646 0.430511-525.374932zM628.238026 5.929713l29.844898 27.785426c9.727226-10.332269 23.678116-18.093106 38.92054-18.093107 10.053018 0 19.780245 3.560444 27.250196 10.343905a39.129978 39.129978 0 0 1 12.647721 29.076959 39.828104 39.828104 0 0 1-13.95089 30.694286c-7.132524 6.131876-16.85975 9.040735-27.564352 9.040735-11.030395 0-23.678116-4.200393-33.416978-12.275387l-27.238561 3.874601 14.590839 119.868282h120.007908v-38.769279h-84.322019l-3.57208-35.534628a92.734441 92.734441 0 0 0 17.511335 1.605691c17.52297 0 36.977422-4.200393 52.87143-17.11573 17.837126-14.218505 28.867522-37.163589 28.867522-61.388571 0-44.586998-37.943163-78.190143-83.682071-78.190143-26.272819 0-48.973559 9.366528-68.765438 29.07696z"  horiz-adv-x="1024" />

    
    <glyph glyph-name="waishejiekou" unicode="&#59180;" d="M977.454545-11.636364V779.636364h46.545455v-791.272728h-46.545455zM744.727273-128H279.272727V11.636364h-93.090909V337.454545h651.636364v-325.818181h-93.090909v-139.636364z m46.545454 186.181818V290.909091H628.363636v-139.636364h-46.545454V290.909091H442.181818v-139.636364h-46.545454V290.909091H232.727273v-232.727273h93.090909v-139.636363h372.363636V58.181818h93.090909zM186.181818 384V570.181818h651.636364v-186.181818H186.181818z m605.090909 139.636364H232.727273v-93.090909h558.545454v93.090909zM186.181818 802.909091l93.090909 93.090909h465.454546l93.090909-93.090909v-186.181818H186.181818V802.909091z m46.545455-139.636364h558.545454V783.627636L725.445818 849.454545H298.554182L232.727273 783.627636V663.272727zM0 779.636364h46.545455v-791.272728H0V779.636364zM232.727273 523.636364h558.545454v-93.090909H232.727273v93.090909z"  horiz-adv-x="1024" />

    
    <glyph glyph-name="yingyongyizhi" unicode="&#59181;" d="M674.909091 546.804364L1000.622545 221.090909 674.909091-104.622545 349.195636 221.090909 674.909091 546.804364zM674.909091 570.181818l349.090909-349.090909-349.090909-349.090909-349.090909 349.090909 156.974545 156.974546-115.979636 116.759272L256 384 0 640 256 896l256-256-112.64-112.628364 115.991273-116.747636L674.909091 570.181818z m-228.759273 69.818182L256 830.149818 65.850182 640 256 449.850182 446.149818 640z m-54.481454-418.909091L674.909091-62.149818 958.149818 221.090909 674.909091 504.331636 548.165818 377.588364l77.498182-78.021819v82.827637h45.893818V188.043636L515.607273 345.029818 391.668364 221.090909z"  horiz-adv-x="1024" />

    
    <glyph glyph-name="linghuozuwang" unicode="&#59182;" d="M512 523.636364c77.114182 0 139.636364-62.522182 139.636364-139.636364s-62.522182-139.636364-139.636364-139.636364-139.636364 62.522182-139.636364 139.636364 62.522182 139.636364 139.636364 139.636364zM512-128v46.545455c257.058909 0 465.454545 208.395636 465.454545 465.454545h46.545455c0-282.775273-229.224727-512-512-512z m310.609455 685.44v-45.719273H639.709091V694.609455h45.730909v-104.273455L874.740364 779.648 907.636364 746.740364 718.336 557.44h104.273455zM512 244.363636c-77.114182 0-139.636364 62.522182-139.636364 139.636364s62.522182 139.636364 139.636364 139.636364 139.636364-62.522182 139.636364-139.636364-62.522182-139.636364-139.636364-139.636364z m0 232.727273a93.090909 93.090909 0 1 1 0-186.181818 93.090909 93.090909 0 0 1 0 186.181818z m-279.272727-93.090909h-46.545455c0 179.944727 145.873455 325.818182 325.818182 325.818182v-46.545455c-154.24 0-279.272727-125.032727-279.272727-279.272727zM46.545455 384H0C0 666.775273 229.224727 896 512 896v-46.545455C254.941091 849.454545 46.545455 641.058909 46.545455 384z m153.204363-174.301091v46.103273h184.052364V71.761455h-46.103273v105.041454L149.248-11.636364l-32.896 32.896 188.450909 188.439273h-105.053091zM791.272727 384h46.545455c0-179.944727-145.873455-325.818182-325.818182-325.818182v46.545455c154.24 0 279.272727 125.032727 279.272727 279.272727z"  horiz-adv-x="1024" />

    
    <glyph glyph-name="yunbianjicheng" unicode="&#59184;" d="M818.541532-81.440271H686.575745v46.536467h101.321523L930.892197 108.091125V209.412648h46.536467v-131.965787L818.541532-81.440271zM930.892197 659.757673L787.897268 802.752602H686.575745V849.289069h131.965787L977.428664 690.401936V558.43615h-46.536467v101.321523zM337.552243 802.752602h-101.321523L93.235791 659.757673V558.43615H46.699324V690.401936L205.586457 849.289069H337.552243v-46.536467zM93.235791 108.091125L236.23072-34.903804H337.552243v-46.536467H205.586457L46.699324 77.446861V209.412648h46.536467v-101.321523zM930.950368 383.773155l93.154373 93.084568v-186.157502l-93.154373 93.072934zM977.428664 690.401936L818.541532 849.289069H686.575745V895.825536h151.243518l186.145868-186.145868v-151.243518h-46.536467V690.401936zM419.13067 895.965145h186.157502l-93.072934-93.154373-93.084568 93.154373zM46.699324 690.401936V558.43615H0.162857V709.679668L186.308725 895.825536h151.243518v-46.536467H205.586457L46.699324 690.401936zM0.023248 290.991074V477.148576l93.154373-93.072934-93.154373-93.084568zM46.699324 77.446861L205.586457-81.440271H337.552243v-46.536467H186.308725L0.162857 58.16913V209.412648h46.536467v-131.965787z m558.297995-205.563209H418.839817l93.072934 93.154373 93.084568-93.154373z m99.332089 640.737346c1.675313 0 3.373894-0.034902 5.06084-0.081438 80.019455-2.594408 145.577703-68.024681 149.254084-148.974865 1.954532-43.232378-13.158186-84.231005-42.580867-115.422073-29.445949-31.214335-69.129922-48.40956-111.734057-48.40956-41.266212 0-80.065991 16.276129-109.372332 45.943128l-58.950069 56.192783 26.467615 26.805005a15.391936 15.391936 0 0 0 21.697628 0.325756l48.060536-45.826786a100.658378 100.658378 0 0 1 72.096622-30.23707 101.693815 101.693815 0 0 1 74.435079 32.761673 103.148079 103.148079 0 0 1 27.282003 77.529754c-3.455333 52.272087-45.024032 93.573201-96.702778 96.062902A100.507135 100.507135 0 0 1 632.360761 429.297454l-48.188511-45.954761a15.391936 15.391936 0 0 0-21.697628 0.337389l-26.467615 26.793371 59.078044 56.320759c29.178365 29.550657 67.978144 45.826786 109.244357 45.826786zM513.913819 651.846473a4.735086 4.735086 0 0 0 3.42043 1.430997c1.303021 0 2.524603-0.500267 3.432065-1.430997l58.822094-59.566677a4.967768 4.967768 0 0 0 0-6.945568l-58.822094-59.555044a4.758354 4.758354 0 0 0-6.852495 0l-58.822094 59.555044a4.967768 4.967768 0 0 0 0 6.945568l58.822094 59.566677z m-188.589033-398.794253a100.542037 100.542037 0 0 1 76.994585 29.992753l48.176877 45.954761a15.438473 15.438473 0 0 0 21.709262-0.325756l26.467616-26.805005-59.078045-56.320759c-29.178365-29.539022-67.978144-45.815152-109.244356-45.815152-42.604136 0-82.288108 17.195225-111.734058 48.40956-29.422681 31.191067-44.547033 72.189694-42.580867 115.422073 3.676381 80.950184 69.234629 146.380457 149.254084 148.974865 1.698581 0.046536 3.373894 0.081439 5.060841 0.081438 41.266212 0 80.065991-16.276129 109.360697-45.943127l58.961704-56.204418-26.467616-26.793371a15.438473 15.438473 0 0 0-21.709262-0.337389l-48.048902 45.83842a100.658378 100.658378 0 0 1-72.096621 30.237069 101.751985 101.751985 0 0 1-74.446713-32.773306 103.136445 103.136445 0 0 1-27.27037-77.51812c3.455333-52.272087 45.024032-93.573201 96.691144-96.074536zM977.428664 77.446861V209.412648h46.536467v-151.243518L837.819263-127.976738H686.575745v46.536467h131.965787L977.428664 77.446861z"  horiz-adv-x="1024" />

    
    <glyph glyph-name="merge" unicode="&#59157;" d="M512 896C229.216 896 0 666.752 0 384c0-99.456 28.832-192 77.888-270.56l243.264 243.232 192-191.968L870.08 521.6c16.512-42.784 25.92-89.056 25.92-137.6 0-211.744-172.256-384-384-384-101.44 0-193.536 39.808-262.272 104.288l-90.624-90.624C250.976-73.92 375.072-128 512-128c282.784 0 512 229.216 512 512 0 282.752-229.216 512-512 512z m1.152-550.304l-192 192-190.848-190.848A374.656 374.656 0 0 0 128 384C128 595.744 300.256 768 512 768c115.904 0 219.712-51.84 290.208-133.28l-289.056-289.024z"  horiz-adv-x="1024" />

    
    <glyph glyph-name="up" unicode="&#59158;" d="M625.891538 522.066409v-137.625234c0-227.589271-149.399525-421.712297-354.333276-488.174756a600.042262 600.042262 0 0 1 121.573658 362.347313V521.643381l-166.978704 25.005678L508.101634 882.88612l281.948419-336.237061-164.158515-24.58265z"  horiz-adv-x="1024" />

    
    <glyph glyph-name="device" unicode="&#59159;" d="M793.712061-96l-206.368 206.336-83.328-104.16-99.936 79.968 172.672 215.84 177.632-177.664 153.536 332.64L1024.176061 403.36 793.712061-96zM768.176061 569.76C686.864061 534.144 573.616061 512 448.176061 512s-238.688 22.144-320 57.76v-174.688c22.336-21.408 107.552-64.896 256-75.04V192c-99.648 6.144-188.8 26.144-256 55.584v-172.512c22.336-21.408 107.552-64.896 256-75.04V-128c-217.024 13.344-384 93.12-384 189.824v640h0.256C0.400061 702.56 0.176061 703.264 0.176061 704c0 106.048 200.576 192 448 192s448-85.952 448-192c0-0.736-0.224-1.44-0.256-2.176H896.176061v-192h-128v59.936zM448.176061 768C289.456061 768 188.976061 730.368 146.128061 704 188.976061 677.632 289.456061 640 448.176061 640s259.2 37.632 302.048 64C707.376061 730.368 606.896061 768 448.176061 768z"  horiz-adv-x="1024" />

    
    <glyph glyph-name="model" unicode="&#59160;" d="M800 383.968l-53.408-30.496-70.08 124.576L736 512.032V768l-224 128-224-128v-255.968l59.488-33.984-70.08-124.576L224 383.968l-224-128V0l224-128 224 128v63.968h128V0l224-128 224 128v255.968l-224 128zM416 693.632l96 54.848 96-54.848v-107.232l-96-54.848-96 54.848V693.632zM128 74.4v107.2l96 54.848 96-54.848v-107.2L224 19.52l-96 54.88zM448 192v63.968l-59.456 33.984 70.08 124.576 53.376-30.496 53.376 30.496 70.08-124.576L576 255.968V192h-128z m448-117.6l-96-54.88-96 54.88v107.2l96 54.848 96-54.848v-107.2z"  horiz-adv-x="1024" />

    
    <glyph glyph-name="develop" unicode="&#59161;" d="M955.430151 20.844911a113.436874 113.436874 0 1 0-217.276336-45.942644A452.44134 452.44134 0 0 0 614.693608-77.855107l-28.337923 109.91593C733.042767 70.052947 841.851303 203.167357 841.851303 361.581454c0 158.414098-108.808536 291.528507-255.495618 329.520632L614.693608 800.989621C810.531936 750.503824 955.430151 573.207242 955.430151 361.581454c0-87.086581-24.845373-168.153484-67.352257-237.181028A113.408479 113.408479 0 0 0 955.430151 20.844911z m-256.091907 227.044117l-198.734589-113.862795-198.762983 113.862795v227.6688l198.762983 113.8344 198.734589-113.8344v-227.6688z m-113.578847 161.821463l-85.155742 48.81051-85.184135-48.81051v-96.002521l85.184135-48.782115 85.155742 48.782115v96.002521zM160.378217 361.581454c0-158.414098 108.808536-291.528507 255.524013-329.520631L387.535913-77.855107C191.697585-27.340915 46.79937 149.955666 46.79937 361.581454c0 87.086581 24.845373 168.153484 67.380651 237.152634A113.522058 113.522058 0 0 0 46.79937 702.317997a113.493664 113.493664 0 1 0 217.30473 45.942644A452.554919 452.554919 0 0 0 387.535913 800.989621l28.366317-109.887535C269.186753 653.109962 160.378217 519.995552 160.378217 361.581454zM160.236244 702.317997l0.113579-0.056789L160.378217 702.317997h-0.141973z"  horiz-adv-x="1024" />

    
    <glyph glyph-name="cc" unicode="&#59162;" d="M1177.968047-118.574681a357.132263 357.132263 0 0 0-252.603894 104.063081L787.752859 109.169541l77.513179 77.085874a47.820209 47.820209 0 0 0 65.615101 1.652247l104.015602-93.494397a202.352792 202.352792 0 0 1 143.071306-59.025103c113.625224 0 205.695269 93.589353 202.343296 207.328525-3.02912 102.971078-85.745927 188.337179-189.115824 194.908184a202.504723 202.504723 0 0 1-156.298778-58.616789l-0.009496-0.009496-104.006106-93.475405a47.820209 47.820209 0 0 0-65.615101 1.652247l-77.513179 77.085874 137.611294 123.681141c67.200878 66.821051 161.037119 107.15867 264.312058 103.873167 185.070667-5.877822 336.621609-154.361661 345.139228-338.321334 9.429203-203.853109-153.953347-372.068956-356.847392-372.068957zM787.534459 587.077269a23.834139 23.834139 0 0 0-33.595692 0l-131.040288 130.337608a23.530278 23.530278 0 0 0 0 33.405778l131.040288 130.337608a23.862626 23.862626 0 0 0 33.595692 0l131.040287-130.337608a23.530278 23.530278 0 0 0 0-33.405778l-131.040287-130.337608z m-33.814092-222.815967l-77.513179-77.085874a47.810714 47.810714 0 0 0-65.615101-1.642752l-104.015602 93.484901v-0.009495a202.362288 202.362288 0 0 1-143.071306 59.034599c-113.625224 0-205.685774-93.589353-202.343296-207.328525 3.019624-102.971078 85.736432-188.337179 189.106328-194.908185a202.495227 202.495227 0 0 1 156.308274 58.61679l104.015602 93.484901a47.820209 47.820209 0 0 0 65.615101-1.652247l77.513179-77.085874-137.620789-123.681141a357.084784 357.084784 0 0 0-252.594399-104.063081c-202.894046 0-366.276596 168.225343-356.847392 372.068957 8.517619 183.969169 160.06856 332.443513 345.139227 338.321334 103.27494 3.285503 197.111181-37.052116 264.302564-103.873167l137.620789-123.681141z"  horiz-adv-x="1559" />

    
    <glyph glyph-name="play1" unicode="&#59163;" d="M512 896c282.770286 0 512-229.229714 512-512s-229.229714-512-512-512S0 101.229714 0 384 229.229714 896 512 896zM731.465143 384l-365.677714-219.465143V603.465143L731.465143 384z"  horiz-adv-x="1024" />

    
    <glyph glyph-name="fanhuidingbu" unicode="&#59164;" d="M480 597.333333v-436.693333h128V602.666667l207.573333-207.573334 89.6 89.813334L546.346667 843.733333l-362.666667-362.666666 90.453333-90.666667z m-277.333333-650.026666h682.666666v128h-682.666666z"  horiz-adv-x="1024" />

    
    <glyph glyph-name="dianhua" unicode="&#59165;" d="M759.658872 231.053694a31.99911 31.99911 0 0 1-44.158772 0l-85.437624-84.477651S515.185671 128.01656 386.86924 256.013s-110.076938 240.633307-110.076938 240.633307l34.239047 34.239048 50.558594 49.59862a31.99911 31.99911 0 0 1 0 43.838781L172.475203 811.197559 150.715808 831.99698a31.99911 31.99911 0 0 1-44.158772 0L58.23838 784.958288a28.799199 28.799199 0 0 1-4.799866-5.759839l-2.87992-4.799867A204.154322 204.154322 0 0 1 16.319546 718.080148c-57.918389-144.315986 51.838558-393.269062 235.193459-575.98398C396.788964 0.020119 616.302859-127.976321 755.178997-127.976321a273.2724 273.2724 0 0 1 100.157214 17.599511 197.434509 197.434509 0 0 1 69.438069 44.158772l46.078718 45.438736a31.99911 31.99911 0 0 1 0 43.838781z m-17.599511 126.076493a44.798754 44.798754 0 0 1 89.277517 0A349.750273 349.750273 0 0 1 479.98665 704.00054a44.158772 44.158772 0 1 1 0-87.997553 261.112738 261.112738 0 0 0 262.072711-258.8728zM483.506552 895.9952a44.478763 44.478763 0 0 1-44.798754-44.158772 44.478763 44.478763 0 0 1 44.798754-44.158772 449.587496 449.587496 0 0 0 451.827434-447.98754 44.798754 44.798754 0 0 1 89.277517 0A538.865013 538.865013 0 0 1 483.506552 895.9952z"  horiz-adv-x="1024" />

    
    <glyph glyph-name="fankui" unicode="&#59166;" d="M652.48 517.76l-184.32 184.32L96 336.96v-192h192z m156.48 160l-180.8 181.12L536.64 768l183.04-182.72zM0-47.04h1024v128H0z m704 256h320v128H704z m96 384v-128h224v128z"  horiz-adv-x="1024" />

    
    <glyph glyph-name="youxiang1" unicode="&#59167;" d="M17.92 760v-736h992v736z m904-623.04a32 32 0 0 0-47.04 0l-226.24 232.32-111.04-104.96a32 32 0 0 0-45.44 0L384 366.4l-224-229.44a32 32 0 0 0-47.36 0 34.88 34.88 0 0 0 0 48.64l221.44 227.52-224 210.88A35.2 35.2 0 0 0 107.2 672a32 32 0 0 0 47.36 3.52l359.36-338.88L872 674.88a32 32 0 0 0 47.68 0 35.84 35.84 0 0 0 0-48.96L697.28 416l224-230.4a35.2 35.2 0 0 0 0.64-48.64z"  horiz-adv-x="1024" />

    
    <glyph glyph-name="kefu" unicode="&#59168;" d="M480 486.72a64 64 0 0 1-64-64v-128a64 64 0 0 1 128 0v128a64 64 0 0 1-64 64z m320 0a64 64 0 0 1-64-64v-128a64 64 0 0 1 128 0v128a64 64 0 0 1-64 64z m-32 256h-54.72l-46.08 77.12a30.08 30.08 0 0 1-56.32 0l-46.4-77.12H256a256 256 0 0 1-256-256v-256a256 256 0 0 1 256-256h512a256 256 0 0 1 256 256v256a256 256 0 0 1-256 256z m192-464a176 176 0 0 0-176-176h-384a176 176 0 0 0-176 176v128a176 176 0 0 0 176 176h184.96l26.56-44.16a30.08 30.08 0 0 1 56.32 0l26.24 44.16h89.92a176 176 0 0 0 176-176z"  horiz-adv-x="1024" />

    
    <glyph glyph-name="lianxiwomen" unicode="&#59169;" d="M112 741.333333v-597.333333h264.32l151.68-151.68 151.68 151.68h242.986667v597.333333z m192-362.666666a64 64 0 1 0 64 64 64 64 0 0 0-64-64z m213.333333 0a64 64 0 1 0 64 64 64 64 0 0 0-64-64z m213.333334 0a64 64 0 1 0 64 64 64 64 0 0 0-64-64z"  horiz-adv-x="1024" />

    
    <glyph glyph-name="weizhi" unicode="&#59170;" d="M316.16 110.72q91.52-82.24 213.76-173.76 111.36 82.56 213.76 173.76c121.28-22.4 202.24-64 202.24-109.76 0-70.72-186.24-128-416-128s-416 57.28-416 128c0 46.72 81.28 87.36 202.24 109.76zM529.92 64Q183.36 400 183.36 576c0 176.64 155.2 320 346.56 320S876.8 753.6 876.8 576q0-175.68-346.88-512z m0 320a160 160 0 1 1-160 160 160 160 0 0 1 160-160z"  horiz-adv-x="1024" />

    
    <glyph glyph-name="qq" unicode="&#59171;" d="M974.72 215.04a405.76 405.76 0 0 1-104 205.12c11.84 112.32-32 132.48-32 132.48C829.44 900.8 566.4 890.88 560.64 890.88S256 900.48 247.04 552.64c0 0-43.84-20.16-32-132.48a400.64 400.64 0 0 1-104-205.12s-10.56-209.28 96-25.6a618.88 618.88 0 0 1 68.16-132.8s-78.4-28.48-72-102.4c0 0-2.56-82.88 168.32-76.8 0 0 119.36 9.6 155.84 64h32c36.16-54.4 155.84-64 155.84-64 170.88-6.08 168 76.8 168 76.8 6.72 73.92-72 102.4-72 102.4a591.04 591.04 0 0 1 67.84 132.8c106.56-184.64 96 25.6 96 25.6"  horiz-adv-x="1024" />

    
    <glyph glyph-name="xiala" unicode="&#59172;" d="M1744.64 689.92L1564.16 864 901.12 226.56 236.8 864 56.32 689.92l663.04-637.44 180.48-172.8h1.28l180.48 172.8v1.28l663.04 636.16z"  horiz-adv-x="1792" />

    
    <glyph glyph-name="fangwenquanxian" unicode="&#59173;" d="M851.84 544v9.92a273.92 273.92 0 1 1-547.84 0V544H201.6v-608h736V544z m-452.48 9.92a178.56 178.56 0 1 0 356.8 0V544H399.36zM842.56 32h-544V448h544z m-312.96 181.12V64h96v148.48a96 96 0 0 1 23.36 16.64 100.16 100.16 0 0 1 0 141.12 98.56 98.56 0 0 1-140.16 0 100.16 100.16 0 0 1 0-141.12 92.16 92.16 0 0 1 20.8-15.68z"  horiz-adv-x="1024" />

    
    <glyph glyph-name="zhanghaoxinxi" unicode="&#59174;" d="M740.16 362.88a192 192 0 0 1 27.84 99.2v160a192 192 0 0 1-192 192h-64a192 192 0 0 1-192-192v-160a192 192 0 0 1 27.84-99.2A224 224 0 0 1 160 142.08v-192h768v192a224 224 0 0 1-187.84 220.8zM416 590.08a128 128 0 1 0 256 0v-96a128 128 0 1 0-256 0z m416-544H256v64a160 160 0 0 0 160 160h96v-128h96v128h64a160 160 0 0 0 160-160z"  horiz-adv-x="1024" />

    
    <glyph glyph-name="bangdingshouji" unicode="&#59175;" d="M512 896a512 512 0 1 1 512-512A512 512 0 0 1 512 896z m288-832H256V704h544zM704 608H352v-448h352z m-128-128h-96v96h96z"  horiz-adv-x="1024" />

    
    <glyph glyph-name="bangdingyouxiang" unicode="&#59176;" d="M512-128a512 512 0 1 0 512 512 512 512 0 0 0-512-512zM864 640H192v-544h672z m-96-448H288V544h480z m-240 203.52L370.88 480 320 398.08 525.12 288h5.76L736 398.08 685.12 480z"  horiz-adv-x="1024" />

    
    <glyph glyph-name="anquanshezhi" unicode="&#59177;" d="M384 507.84l-66.88-68.16 160-162.56 249.6 251.52-65.6 68.48L480 413.12z m559.36-267.84L768 338.24l-171.84-104 3.2-201.92 175.04-97.92 171.84 104z m-171.84-177.6a73.92 73.92 0 1 0 73.28 73.92 73.28 73.28 0 0 0-73.28-73.92zM210.56 363.84V733.44h570.88V400h96V830.08H114.56v-466.24c0-210.56 324.8-363.84 361.92-379.84l19.52-8.96 19.52 8.96c3.84 1.6 11.2 4.8 20.8 9.6v109.12c-14.72-8.32-28.16-15.36-40.32-21.44-95.04 46.72-285.44 165.12-285.44 282.56z"  horiz-adv-x="1024" />

    
    <glyph glyph-name="shimingrenzheng" unicode="&#59178;" d="M448 448c35.2 0 64 28.8 64 64v32c0 35.2-28.8 64-64 64s-64-28.8-64-64v-32c0-35.2 28.8-64 64-64zM544 320h-192c-19.2 0-32-12.8-32-32v-96h256v96c0 19.2-12.8 32-32 32zM512 896C230.4 896 0 665.6 0 384s230.4-512 512-512 512 230.4 512 512S793.6 896 512 896z m160-800H224v192c0 60.8 44.8 115.2 102.4 124.8C300.8 441.6 288 480 288 518.4V544c0 89.6 70.4 160 160 160s160-70.4 160-160v-25.6c0-38.4-12.8-73.6-38.4-102.4 60.8-12.8 102.4-64 102.4-124.8V96z m192 256h-128v96h128v-96z m0 192h-192V640h192v-96z"  horiz-adv-x="1024" />

    
    <glyph glyph-name="search-empty" unicode="&#59179;" d="M512 861.866667A477.866667 477.866667 0 1 0 34.133333 384 477.866667 477.866667 0 0 0 512 861.866667m0 34.133333a512 512 0 1 1 512-512A512 512 0 0 1 512 896zM512 238.933333a61.952 61.952 0 1 0-59.733333-61.781333A60.757333 60.757333 0 0 0 512 238.933333zM512 661.333333a48.981333 48.981333 0 0 0 48.981333-48.810666v-274.090667A48.981333 48.981333 0 0 0 512 289.621333a48.810667 48.810667 0 0 0-48.810667 48.810667V612.522667A48.810667 48.810667 0 0 0 512 661.333333z"  horiz-adv-x="1024" />

    
    <glyph glyph-name="close1" unicode="&#59154;" d="M1023.817 820.69L949.238 896 512 454.01 74.762 896 0.182 820.69l437.239-441.991L10.785-52.324 85.364-128 512 303.389 938.636-128l74.58 75.676-426.637 431.023 437.238 441.99z"  horiz-adv-x="1024" />

    
    <glyph glyph-name="search" unicode="&#59155;" d="M971.264-6.912L783.616 180.736a407.552 407.552 0 1 1-71.168-73.728L898.816-79.36a51.2 51.2 0 0 1 72.448 72.448zM149.248 426.752a307.2 307.2 0 1 0 307.2-307.2 307.2 307.2 0 0 0-307.2 307.2z"  horiz-adv-x="1024" />

    
    <glyph glyph-name="lingdang" unicode="&#59156;" d="M862.316 33.684H107.789v107.79h65.051l69.686 673.684h188.632V896h161.684v-80.842h188.632l69.686-673.684h65.05v-107.79h-53.894zM673.684 707.368H350.316L296.42 141.474H727.58l-53.895 565.894zM619.79-128H404.211V-20.21h215.578V-128z"  horiz-adv-x="1024" />

    
    <glyph glyph-name="duihuajiaohu" unicode="&#59149;" d="M752.663273 0.232727H395.636364V430.545455H221.090909L0 325.818182V896h512v-337.454545h512v-686.545455L752.663273 0.232727zM465.454545 849.454545H46.545455v-450.082909l154.624 73.239273L210.618182 477.090909H395.636364v81.454546h69.818181V849.454545z m512-337.454545H442.181818v-465.221818H763.101091l9.448727-4.456727L977.454545-54.516364V512zM826.181818 209.454545h-46.545454V349.090909h46.545454v-139.636364zM686.545455 395.636364h46.545454v-232.727273h-46.545454V395.636364z m-93.09091-46.545455h46.545455v-139.636364h-46.545455V349.090909zM325.818182 709.818182h46.545454v-93.090909h-46.545454v93.090909z m-93.090909 46.545454h46.545454v-186.181818h-46.545454V756.363636z m-93.090909-46.545454h46.545454v-93.090909h-46.545454v93.090909z"  horiz-adv-x="1024" />

    
    <glyph glyph-name="gexinghuabobao" unicode="&#59150;" d="M900.759404 689.858366a289.435824 289.435824 0 0 1-95.345264 104.587047l28.972462 43.793447a342.103482 342.103482 0 0 0 153.316446-286.574022l-52.549511 0.288805a289.107636 289.107636 0 0 1-34.394133 137.904723z m-35.103021-527.385467l132.023589-141.475412H26.268865l142.210553 142.013641V485.922158c0 181.881955 140.451464 331.535819 318.736475 346.724373V869.731809c0 14.440285 11.814779 26.241936 26.268192 26.241936s26.281319-11.801651 26.281319-26.241936v-36.547049c181.671914-11.722886 325.89098-162.952054 325.890979-347.262602v-323.449259z m-52.54951 323.449259c0 163.004564-132.81124 295.605764-296.025845 295.605764-163.240859 0-296.0521-132.6012-296.0521-295.605764v-344.637096l-67.895595-67.803702h723.74709l-63.77355 68.328804V485.922158zM129.674434 689.871494a289.304548 289.304548 0 0 1-34.367879-137.904723l-52.54951-0.315061a341.52587 341.52587 0 0 0 40.603456 162.991437 342.366033 342.366033 0 0 0 112.699862 123.595713l28.972463-43.793447a289.553972 289.553972 0 0 1-95.358392-104.573919zM513.484085-127.986872c-67.317984 0-126.851341 32.92385-163.621558 83.438592h327.256243C640.348553-95.063022 580.815196-127.986872 513.484085-127.986872z"  horiz-adv-x="1024" />

    
    <glyph glyph-name="yuyiyinqing" unicode="&#59151;" d="M628.363636-128V104.727273l46.545455-46.545455h349.090909v-186.181818H628.363636z m349.090909 139.636364H674.909091v-93.090909h302.545454v93.090909zM768 570.181818h46.545455v-372.363636h-46.545455V570.181818z m-93.090909-389.178182V128h-46.545455v53.003636c-13.858909 8.064-23.272727 22.900364-23.272727 40.087273 0 17.186909 9.413818 32.023273 23.272727 40.087273V640h46.545455v-378.821818c13.858909-8.064 23.272727-22.900364 23.272727-40.087273 0-17.186909-9.413818-32.023273-23.272727-40.087273zM488.727273 733.090909h46.545454v-698.181818h-46.545454V733.090909z m-93.090909-389.178182V128h-46.545455V343.912727c-13.858909 8.064-23.272727 22.900364-23.272727 40.087273 0 17.186909 9.413818 32.023273 23.272727 40.087273V640h46.545455v-215.912727c13.858909-8.064 23.272727-22.900364 23.272727-40.087273 0-17.186909-9.413818-32.023273-23.272727-40.087273zM0 709.818182V896h395.636364v-232.727273l-46.545455 46.545455H0zM349.090909 849.454545H46.545455v-93.090909h302.545454V849.454545z m-93.090909-651.636363h-46.545455V570.181818h46.545455v-372.363636z"  horiz-adv-x="1024" />

    
    <glyph glyph-name="moxingxunlian" unicode="&#59152;" d="M861.172364-128l-162.827637 93.090909v69.713455H325.655273V-34.909091l-162.827637-93.090909L0-34.909091V151.272727l162.827636 93.090909 57.064728-32.616727 194.653091 367.604364L349.172364 616.727273V802.909091L512 896l162.827636-93.090909v-186.181818l-66.676363-38.120728 197.154909-366.17309L861.172364 244.363636 1024 151.272727v-186.181818l-162.827636-93.090909zM162.827636 190.754909L46.557091 124.276364v-132.189091l116.270545-66.466909 116.270546 66.466909V124.276364l-116.270546 66.478545zM628.270545 643.723636V775.901091L512 842.379636l-116.270545-66.478545V643.723636L512 577.256727l116.270545 66.466909z m-60.544-88.226909L512 523.636364l-57.018182 32.593454L260.328727 188.625455 325.655273 151.272727v-69.922909h372.689454V151.272727l66.536728 38.039273-197.15491 366.184727z m409.716364-431.220363l-116.270545 66.478545-116.270546-66.478545v-132.189091l116.270546-66.466909 116.270545 66.466909V124.276364z m-162.862545-66.199273a46.557091 46.557091 0 1 0 93.114181-0.023273 46.557091 46.557091 0 0 0-93.114181 0.023273zM465.408 709.701818a46.557091 46.557091 0 1 0 93.114182-0.023273 46.557091 46.557091 0 0 0-93.114182 0.023273zM162.804364 11.531636a46.545455 46.545455 0 1 0-0.011637 93.090909 46.545455 46.545455 0 0 0 0.011637-93.090909z"  horiz-adv-x="1024" />

    
    <glyph glyph-name="shipeishebei" unicode="&#59153;" d="M814.545455-128c-107.799273 0-196.503273 81.466182-208.093091 186.181818H0V279.272727L139.636364 896h607.138909L884.363636 290.909091v-12.171636C965.655273 249.949091 1024 172.613818 1024 81.454545c0-115.677091-93.777455-209.454545-209.454545-209.454545zM46.545455 104.727273h559.906909a209.058909 209.058909 0 0 0 76.578909 139.636363H46.545455v-139.636363zM709.632 849.454545H176.826182L50.362182 290.909091h786.269091L709.632 849.454545z m251.973818-698.391272L814.545455 3.991273l-91.089455 91.101091L756.363636 128l58.181819-58.181818 120.680727 120.680727C905.390545 223.488 862.417455 244.363636 814.545455 244.363636c-89.832727 0-162.909091-73.076364-162.909091-162.909091s73.076364-162.909091 162.909091-162.90909 162.909091 73.076364 162.90909 162.90909c0 24.925091-5.794909 48.465455-15.848727 69.608728zM698.181818 384H325.818182v46.545455h372.363636v-46.545455zM186.181818 197.818182h46.545455v-46.545455h-46.545455v46.545455z m-93.090909 0h46.545455v-46.545455H93.090909v46.545455z"  horiz-adv-x="1024" />

    
    <glyph glyph-name="shipinnongsuo" unicode="&#59147;" d="M709.818182 384L384 174.545455V593.454545zM430.545455 508.16L623.592727 384 430.545455 259.84V508.16M384 593.454545v-418.90909l325.818182 209.454545-325.818182 209.454545z m488.727273-442.181818H174.545455v-46.545454h698.181818v46.545454z m0 512H174.545455v-46.545454h698.181818v46.545454z m-69.818182-605.090909H244.363636v-46.545454h558.545455v46.545454z m0 698.181818H244.363636v-46.545454h558.545455v46.545454zM46.545455 11.636364H0v-139.636364h139.636364v46.545455H46.545455v93.090909z m977.454545 0h-46.545455v-93.090909h-93.090909v-46.545455h139.636364V11.636364z m0 884.363636H884.363636v-46.545455h93.090909v-93.090909h46.545455V896zM139.636364 896H0v-139.636364h46.545455V849.454545h93.090909V896z"  horiz-adv-x="1024" />

    
    <glyph glyph-name="shipinfenxi" unicode="&#59148;" d="M721.454545-34.909091V197.818182h302.545455v-232.727273z m0 535.272727h302.545455v-232.727272H721.454545z m0 302.545455h302.545455v-232.727273H721.454545zM139.636364 896H0v-139.636364h46.545455V849.454545h93.090909V896zM46.545455 11.636364H0v-139.636364h139.636364v46.545455H46.545455v93.090909z m930.90909 139.636363v-139.636363H768V151.272727h209.454545m46.545455 46.545455H721.454545v-232.727273h302.545455V197.818182z m-46.545455 256v-139.636364H768V453.818182h209.454545m46.545455 46.545454H721.454545v-232.727272h302.545455V500.363636z m-46.545455 256v-139.636363H768V756.363636h209.454545m46.545455 46.545455H721.454545v-232.727273h302.545455V802.909091zM162.909091 430.545455l62.021818-46.545455L162.909091 337.454545v93.09091m-46.545455 93.090909v-279.272728l186.181819 139.636364-186.181819 139.636364z m488.727273 69.818181v-418.90909H46.545455V593.454545h558.545454m46.545455 46.545455H0v-512h651.636364V640z"  horiz-adv-x="1024" />

    
    <glyph glyph-name="huozaijiance" unicode="&#59145;" d="M0 663.272727h1024v-325.818182H0zM46.545455 11.636364H0v-139.636364h139.636364v46.545455H46.545455z m930.90909-93.090909h-93.090909v-46.545455h139.636364V11.636364h-46.545455z m0 977.454545h-93.090909v-46.545455h93.090909v-93.090909h46.545455V896zM46.545455 849.454545h93.090909V896H0v-139.636364h46.545455z m528.756363-112.756363v48.872727l-31.883636-12.567273A255.069091 255.069091 0 0 1 411.927273 663.272727H0v-325.818182h229.003636C235.985455 180.014545 360.727273 54.225455 512 54.225455S788.014545 180.014545 794.996364 337.454545H1024V663.272727H575.883636c-0.581818 23.272727-0.581818 46.545455-0.581818 73.425455z m-46.545454-22.225455V663.272727h-60.509091a205.381818 205.381818 0 0 0 59.927272 51.2zM440.901818 616.727273h90.647273c5.236364-66.56 20.130909-122.530909 62.370909-174.545455l46.545455-58.181818H415.767273v34.909091c-1.978182 55.156364-4.189091 131.723636 25.134545 197.818182zM46.545455 384V616.727273h343.854545a465.454545 465.454545 0 0 1-22.458182-156.509091 331.403636 331.403636 0 0 0-12.8 61.672727l-3.258182 34.909091-30.952727-16.756364C267.636364 511.185455 238.661818 444.392727 230.981818 384z m305.221818 0h-74.007273a192.698182 192.698182 0 0 0 37.818182 92.16A286.952727 286.952727 0 0 1 351.767273 384zM512 100.770909c-126.138182 0-229.236364 104.727273-236.101818 236.683636H396.8l14.545455-12.450909 1.047272 12.450909h335.709091C741.236364 205.730909 638.138182 100.770909 512 100.770909zM733.090909 616.727273h244.363636v-232.727273H792.669091a341.178182 341.178182 0 0 1-26.763636 82.152727C749.730909 504.087273 733.090909 543.418182 733.090909 605.090909z m-10.356364-168.843637A330.356364 330.356364 0 0 0 745.309091 384h-101.236364l-8.96 75.287273c-1.629091 13.963636-5.701818 77.847273 53.178182 111.36a381.207273 381.207273 0 0 1 34.792727-122.763637zM676.654545 616.727273a149.294545 149.294545 0 0 1-80.058181-87.970909A315.461818 315.461818 0 0 0 578.327273 616.727273h98.327272z"  horiz-adv-x="1024" />

    
    <glyph glyph-name="rentijiance" unicode="&#59146;" d="M0 360.727273h1024v-186.181818H0zM977.454545-128h-93.090909v46.545455h93.090909v93.090909h46.545455v-139.636364z m0 977.454545h-93.090909V896h139.636364v-139.636364h-46.545455zM608.581818 421.469091c-10.705455 13.614545-26.065455 43.054545-36.072727 142.312727a36.189091 36.189091 0 0 1-24.436364 16.523637 247.389091 247.389091 0 0 1-71.214545 0c-10.938182-4.538182-50.850909-38.865455-91.345455-116.363637-8.378182-15.941818-21.061818-52.945455-34.909091-138.705454l28.858182-30.487273 24.901818 8.610909c-1.512727 4.421818-3.025455 8.843636-4.305454 13.381818l-13.614546 42.123637a306.501818 306.501818 0 0 0 277.643637-32.116364L640 287.650909a260.538182 260.538182 0 0 1-193.861818 39.214546q1.861818-6.050909 3.84-11.636364c23.272727-67.956364 29.090909-132.305455-96-324.770909H360.727273c76.567273 67.607273 131.490909 128 167.68 216.669091l12.8 31.301818 24.203636-23.272727c93.789091-89.949091 99.258182-119.272727 103.912727-207.243637 0-5.469091 0.581818-11.636364 0.930909-17.454545h14.196364v7.330909c0 83.781818 0.814545 129.861818-40.610909 221.090909l41.890909 19.549091c45.730909-101.003636 45.381818-156.741818 44.8-241.338182v-53.76h-103.214545L625.803636-34.909091c-1.047273 14.894545-1.745455 28.043636-2.327272 40.029091-3.607273 68.770909-4.770909 90.414545-66.327273 152.901818-40.610909-82.967273-99.025455-144.523636-172.916364-209.454545l-6.516363-5.701818H266.472727l24.436364 37.12c110.196364 162.210909 129.28 232.727273 124.974545 277.992727l-49.105454-16.989091L302.545455 309.527273l1.745454 11.636363c12.218182 81.454545 25.716364 135.796364 41.076364 165.12C383.301818 558.545455 425.774545 605.090909 454.632727 620.683636a130.094545 130.094545 0 0 0-19.432727 109.847273 129.629091 129.629091 0 0 0 57.367273 79.825455 93.090909 93.090909 0 0 0 72.610909 10.705454c53.992727-14.778182 85.061818-77.963636 69.818182-141.614545l-0.698182-2.909091a133.469091 133.469091 0 0 0-40.727273-67.490909 77.265455 77.265455 0 0 0 21.992727-28.509091l1.629091-3.607273v-3.84c8.843636-90.88 21.527273-115.549091 26.530909-121.949091 34.909091-44.334545 109.498182-79.127273 122.530909-80.872727l-0.930909-46.545455c-25.483636-0.581818-114.967273 44.916364-156.741818 97.745455z m-55.272727 354.327273a48.407273 48.407273 0 0 1-37.469091-5.934546 82.269091 82.269091 0 0 1-35.956364-50.967273c-10.24-39.912727 6.283636-79.243636 36.887273-87.621818a48.407273 48.407273 0 0 1 37.469091 5.934546A81.454545 81.454545 0 0 1 589.847273 686.545455v1.163636c10.589091 40.378182-5.934545 79.592727-36.538182 88.087273zM0-128V11.636364h46.545455v-93.090909h93.090909v-46.545455z m46.545455 884.363636H0V896h139.636364v-46.545455H46.545455z"  horiz-adv-x="1024" />

    
    <glyph glyph-name="renlianjiance" unicode="&#59135;" d="M0 896h418.909091v-1024H0zM977.454545-128h-93.090909v46.545455h93.090909v93.090909h46.545455v-139.636364z m0 977.454545h-93.090909V896h139.636364v-139.636364h-46.545455zM721.454545 477.090909a23.272727 23.272727 0 0 0-23.272727 23.272727v93.090909a23.272727 23.272727 0 0 0 46.545455 0v-93.090909a23.272727 23.272727 0 0 0-23.272728-23.272727z m-232.727272-93.090909V616.727273h46.545454v-279.272728a46.545455 46.545455 0 0 0-46.545454 46.545455z m-186.181818 93.090909a23.272727 23.272727 0 0 0-23.272728 23.272727v93.090909a23.272727 23.272727 0 0 0 46.545455 0v-93.090909a23.272727 23.272727 0 0 0-23.272727-23.272727zM0-128V11.636364h46.545455v-93.090909h93.090909v-46.545455z m46.545455 884.363636H0V896h139.636364v-46.545455H46.545455z m276.48-480.581818c118.225455-104.727273 259.490909-104.727273 377.716363 0a23.272727 23.272727 0 1 0 31.301818-34.909091C663.854545 181.061818 587.869091 151.272727 512 151.272727s-151.970909 29.789091-219.694545 89.6a23.272727 23.272727 0 0 0 30.72 34.909091z"  horiz-adv-x="1024" />

    
    <glyph glyph-name="renlianshuxingfenxi" unicode="&#59144;" d="M212.596364 384H0V570.181818h231.098182C278.690909 705.396364 397.614545 779.636364 512 779.636364v-791.272728c-135.330909 0-277.061818 194.676364-299.403636 395.636364zM977.454545-128h-93.090909v46.545455h93.090909v93.090909h46.545455v-139.636364z m0 977.454545h-93.090909V896h139.636364v-139.636364h-46.545455zM535.272727-9.658182V-128h-46.545454V-9.658182C366.08 9.890909 244.363636 179.781818 215.738182 360.727273h47.36a536.087273 536.087273 0 0 1 81.454545-203.52c44.218182-65.745455 96.698182-108.683636 144.64-119.505455V731.694545A256 256 0 0 1 280.901818 570.181818H418.909091v-139.636363l34.909091-46.545455H0V570.181818h231.447273C275.898182 696.203636 381.905455 769.163636 488.727273 778.589091V896h46.545454v-117.527273c139.636364-11.636364 279.272727-133.469091 279.272728-340.48S674.909091 12.8 535.272727-9.658182zM46.545455 523.636364v-93.090909h325.818181v93.090909z m721.454545-85.643637c0 179.665455-116.363636 281.832727-232.727273 293.934546v-694.225455c47.941818 10.821818 100.421818 53.76 144.64 119.505455A524.567273 524.567273 0 0 1 768 437.992727zM46.545455 756.363636H0V896h139.636364v-46.545455H46.545455z m0-837.818181h93.090909v-46.545455H0V11.636364h46.545455z"  horiz-adv-x="1024" />

    
    <glyph glyph-name="tuxiangneirongpingce" unicode="&#59143;" d="M372.363636 581.818182a93.090909 93.090909 0 1 0 0-186.181818 93.090909 93.090909 0 0 0 0 186.181818zM977.454545-128h-93.090909v46.545455h93.090909v93.079272h46.545455V-128h-46.545455z m0 977.454545h-93.090909V896h139.636364v-139.636364h-46.545455V849.454545zM46.545455 756.363636H0V896h139.636364v-46.545455H46.545455v-93.090909z m69.818181 23.272728h791.272728v-791.272728H116.363636V779.636364z m46.545455-744.727273h698.181818V733.090909H162.909091v-698.181818z m360.727273 430.545454h279.272727v-46.545454H523.636364v46.545454z m0 93.09091h186.181818v-46.545455H523.636364v46.545455zM372.363636 372.363636c-64.267636 0-116.363636 52.096-116.363636 116.363637s52.096 116.363636 116.363636 116.363636 116.363636-52.096 116.363637-116.363636-52.096-116.363636-116.363637-116.363637z m0 186.181819a69.818182 69.818182 0 1 1 0-139.636364 69.818182 69.818182 0 0 1 0 139.636364z m430.545455-387.467637l-19.048727-42.205091L458.589091 273.722182 259.979636 131.234909 232.727273 168.715636l220.392727 158.126546L802.909091 171.077818zM46.545455-81.454545h93.090909v-46.545455H0V11.624727h46.545455V-81.454545z"  horiz-adv-x="1024" />

    
    <glyph glyph-name="chepaishibie" unicode="&#59137;" d="M325.818182 244.363636h372.363636v-93.090909H325.818182zM718.778182 616.727273H305.221818l-52.014545-139.636364h517.585454zM884.363636-128v46.545455h93.090909v93.090909h46.545455v-139.636364z m93.090909 977.454545h-93.090909V896h139.636364v-139.636364h-46.545455z m-104.727272-372.363636h-52.247273L930.909091 360.727273v-232.727273l-46.545455-69.818182H721.454545v46.545455H302.545455v-46.545455H139.636364l-46.545455 69.818182V360.727273l110.429091 116.363636H151.272727l-23.272727 46.545455h93.090909l52.014546 139.636363h477.905454L802.909091 523.636364h93.090909zM718.778182 616.727273H305.221818l-52.014545-139.636364h517.585454z m81.454545-186.181818H223.534545L139.636364 342.109091v-200.029091L164.538182 104.727273H256v46.545454h46.545455v46.545455h46.545454v-46.545455h325.818182v46.545455h46.545454v-46.545455h46.545455v-46.545454h91.461818L884.363636 142.08V342.109091zM271.243636 244.363636l-92.276363 71.68 32.232727 33.978182L287.301818 290.909091h449.396364l75.985454 59.112727 32.232728-33.978182L752.756364 244.363636zM46.545455 756.363636H0V896h139.636364v-46.545455H46.545455z m0-837.818181h93.090909v-46.545455H0V11.636364h46.545455z m488.727272 93.090909h-46.545454v46.545454h46.545454z m0-139.636364h-46.545454v93.090909h46.545454z"  horiz-adv-x="1024" />

    
    <glyph glyph-name="chongwushibie" unicode="&#59138;" d="M349.090909 896h325.818182v-1024H349.090909zM977.454545-81.454545h-93.090909v-46.545455h139.636364V11.636364h-46.545455z m0 977.454545h-93.090909v-46.545455h93.090909v-93.090909h46.545455V896zM46.545455 849.454545h93.090909V896H0v-139.636364h46.545455z m930.90909-197.818181h-33.62909L884.363636 710.749091h-35.607272L835.607273 802.909091h-53.178182A438.923636 438.923636 0 0 0 674.909091 632.436364V896H349.090909v-389.701818a438.807273 438.807273 0 0 0-302.545454 136.145454H0c0-110.545455 81.454545-217.832727 165.934545-267.636363 0-83.432727-1.047273-227.607273-74.821818-301.381818l-8.378182-8.378182L105.425455-81.454545H46.545455v93.090909H0v-139.636364h200.727273v46.545455H152.436364l-20.130909 131.025454c81.454545 91.694545 80.64 248.901818 80.058181 334.661818v18.967273c-59.694545 25.483636-122.530909 89.949091-151.272727 162.909091A483.490909 483.490909 0 0 1 349.090909 459.985455v-194.909091h-11.636364c0-75.170909-70.981818-171.752727-107.403636-200.261819l-10.705454-8.378181L247.621818-128H325.818182v46.545455h-38.167273l-18.269091 118.807272A422.050909 422.050909 0 0 1 349.090909 144.756364V-128h488.727273v46.545455h-38.981818a301.614545 301.614545 0 0 0-84.363637 184.552727A349.090909 349.090909 0 0 1 849.454545 290.909091h-48.756363A302.545455 302.545455 0 0 0 674.909091 132.654545V570.181818a485.585455 485.585455 0 0 1 124.741818 155.229091l8.727273-61.207273h57.134545L924.625455 605.090909H977.454545l-18.385454-82.501818A174.545455 174.545455 0 0 1 802.909091 349.090909h46.545454a128 128 0 0 0 128 128 23.272727 23.272727 0 0 1 23.272728 18.269091l23.272727 104.727273V605.090909a46.545455 46.545455 0 0 1-46.545455 46.545455zM628.363636 849.454545v-256.698181a440.32 440.32 0 0 0-232.727272-85.76V849.454545z m0-809.890909l-55.621818 133.469091A292.887273 292.887273 0 0 1 628.363636 209.454545zM737.512727-81.454545h-58.763636l-3.84 9.30909V54.225455A348.392727 348.392727 0 0 1 737.512727-81.454545zM628.363636 275.432727c-27.694545-34.909091-89.250909-80.756364-151.272727-80.756363a236.8 236.8 0 0 0-53.410909 5.934545l-10.705455-45.381818a280.669091 280.669091 0 0 1 64.116364-7.098182 190.72 190.72 0 0 1 52.363636 7.796364L628.363636-81.454545H395.636364V460.567273a486.4 486.4 0 0 1 232.727272 75.869091z"  horiz-adv-x="1024" />

    
    <glyph glyph-name="tuxiangchaobiao" unicode="&#59139;" d="M325.818182 314.181818h372.363636v-139.636363H325.818182zM46.545455 11.636364H0v-139.636364h139.636364v46.545455H46.545455z m930.90909-93.090909h-93.090909v-46.545455h139.636364V11.636364h-46.545455zM884.363636 896v-46.545455h93.090909v-93.090909h46.545455V896zM46.545455 849.454545h93.090909V896H0v-139.636364h46.545455z m558.545454-369.105454a97.512727 97.512727 0 0 1-27.229091 68.189091L512 616.727273l-65.861818-68.189091A97.512727 97.512727 0 0 1 418.909091 480.349091a93.090909 93.090909 0 1 1 186.181818 0z m-139.636364 0a51.2 51.2 0 0 0 14.196364 35.956364L512 549.701818l32.698182-33.861818A50.850909 50.850909 0 0 0 558.545455 480.349091a46.545455 46.545455 0 1 0-93.09091 0zM302.545455 151.272727h418.90909V337.454545H302.545455z m46.545454 139.636364h325.818182v-93.090909H349.090909zM512 826.181818a442.181818 442.181818 0 1 1 442.181818-442.181818A442.181818 442.181818 0 0 1 512 826.181818z m23.272727-837.12V81.454545h-46.545454v-92.392727A395.636364 395.636364 0 0 0 117.061818 360.727273H209.454545v46.545454h-92.392727a395.636364 395.636364 0 0 0 789.76 0H814.545455v-46.545454h92.392727A395.636364 395.636364 0 0 0 535.272727-10.938182zM248.669091 624.058182l32.930909-32.930909a325.818182 325.818182 0 0 0 460.8 0l32.930909 32.930909a372.363636 372.363636 0 0 1-526.545454 0z"  horiz-adv-x="1024" />

    
    <glyph glyph-name="tuxiangquwu" unicode="&#59140;" d="M721.454545 453.818182V593.454545a69.818182 69.818182 0 0 0 0-139.636363z m0-395.636364v46.545455h106.472728L709.818182 222.836364V81.454545H139.636364V325.818182l139.636363 139.636363 221.090909-221.090909 104.727273 104.727273 104.727273-104.727273v-17.570909l31.301818 31.301818L861.090909 138.007273V663.272727H721.454545v46.545455h186.181819v-651.636364zM977.454545-128h-93.090909v46.545455h93.090909v93.090909h46.545455v-139.636364z m0 977.454545h-93.090909V896h139.636364v-139.636364h-46.545455zM698.181818 58.181818H116.363636V709.818182h581.818182V896h46.545455v-1024h-46.545455z m0 399.941818a69.818182 69.818182 0 0 0 0 131.025455V663.272727H162.909091v-305.338182l133.12 134.4L517.818182 268.334545l104.727273 106.123637 75.636363-75.985455z m0-226.327272l-75.287273 75.985454-104.727272-106.123636-222.138182 224L162.909091 290.909091v-186.181818h535.272727zM46.545455 756.363636H0V896h139.636364v-46.545455H46.545455z m0-837.818181h93.090909v-46.545455H0V11.636364h46.545455z"  horiz-adv-x="1024" />

    
    <glyph glyph-name="tuxiangzengqiang" unicode="&#59141;" d="M535.272727 616.727273h46.545455v-23.272728h46.545454v-23.272727h46.545455v-34.909091h34.909091v-34.909091h34.909091v-34.909091h23.272727v-46.545454h-11.636364v-46.545455h11.636364v-46.545454h-23.272727v-34.909091h-34.909091v-34.909091h-34.909091v-46.545455h-34.909091v-34.90909h-34.909091v-23.272728h-69.818182v46.545455h58.181818v23.272727h34.909091v34.909091h34.909091v46.545455h34.909091v34.90909h23.272727v34.909091h-11.636363v46.545455h11.636363v34.909091h-23.272727v34.909091h-34.909091v34.909091h-34.909091v23.272727h-46.545454v23.272727h-46.545455z m34.909091-209.454546v34.909091h-34.909091v46.545455h46.545455v-34.909091h34.909091v-46.545455h34.909091v-46.545454h-34.909091v-46.545455h-34.909091v-34.909091h-46.545455v46.545455h34.909091v34.909091h34.909091v46.545454z m-81.454545-349.090909v46.545455h372.363636V663.272727H488.727273v46.545455h418.909091v-651.636364z m23.272727 93.090909a232.727273 232.727273 0 0 0 0 465.454546z m0 325.818182a93.090909 93.090909 0 0 1 0-186.181818zM977.454545-128h-93.090909v46.545455h93.090909v93.090909h46.545455v-139.636364z m0 977.454545h-93.090909V896h139.636364v-139.636364h-46.545455zM535.272727-128h-46.545454V58.181818H116.363636V709.818182h372.363637V896h46.545454v-837.818182z m-46.545454 577.512727a69.818182 69.818182 0 0 1 0-131.025454z m0-179.549091a116.363636 116.363636 0 0 0 0 228.072728v70.516363a186.181818 186.181818 0 0 1 0-369.105454z m0-117.527272a232.727273 232.727273 0 0 0 0 463.127272V663.272727H162.909091v-558.545454h325.818182zM46.545455 756.363636H0V896h139.636364v-46.545455H46.545455z m0-837.818181h93.090909v-46.545455H0V11.636364h46.545455z"  horiz-adv-x="1024" />

    
    <glyph glyph-name="yundongjiance" unicode="&#59142;" d="M640 593.454545m-81.454545 0a81.454545 81.454545 0 1 1 162.90909 0 81.454545 81.454545 0 1 1-162.90909 0ZM46.545455 197.818182H0v-46.545455h46.545455z m392.02909 97.745454c-32.698182-4.421818-67.956364 21.876364-104.727272 78.08l-38.865455-25.6c43.52-66.094545 89.483636-99.490909 136.494546-99.490909a101.818182 101.818182 0 0 1 13.614545 0.930909c30.138182 4.072727 58.996364 21.76 85.992727 52.48 31.418182-7.912727 84.596364-28.509091 98.676364-66.56 14.894545-40.261818-17.92-91.345455-48.174545-127.069091L616.727273 78.196364c55.505455 65.745455 74.472727 124.16 56.203636 173.381818-19.316364 52.014545-75.054545 77.963636-112.756364 90.065454 4.189091 6.516364 8.378182 13.381818 12.45091 20.596364a582.981818 582.981818 0 0 1 30.836363 64.232727A208.64 208.64 0 0 1 688.290909 407.272727a175.592727 175.592727 0 0 1 132.538182 60.392728l-34.909091 30.603636c-13.614545-15.592727-87.272727-89.018182-206.778182-4.421818S365.963636 535.272727 362.007273 533.76l20.363636-41.890909c2.909091 1.396364 72.610909 32.814545 169.658182-35.84 3.607273-2.56 7.098182-4.770909 10.705454-7.098182C540.974545 394.123636 493.963636 302.545455 438.574545 295.563636zM733.090909 593.454545a93.090909 93.090909 0 1 1-93.090909-93.090909 93.090909 93.090909 0 0 1 93.090909 93.090909z m-139.636364 0a46.545455 46.545455 0 1 0 46.545455-46.545454 46.545455 46.545455 0 0 0-46.545455 46.545454z m360.727273-209.454545A442.181818 442.181818 0 0 1 96.581818 535.272727H0v-46.545454h325.818182v46.545454H146.501818a395.636364 395.636364 0 1 0 45.847273-384H535.272727v46.545455H93.090909v-46.545455h43.287273a442.181818 442.181818 0 0 1 671.418182-95.883636l141.963636-141.963636 32.930909 32.930909-141.963636 141.963636A440.436364 440.436364 0 0 1 954.181818 384zM73.774545 442.181818a439.156364 439.156364 0 0 1 18.734546-197.818182h49.454545A393.541818 393.541818 0 0 0 116.363636 384v11.636364h209.454546v46.545454zM46.545455-11.636364H0v-116.363636h116.363636v46.545455H46.545455zM977.454545 896h-69.818181v-46.545455h69.818181v-69.818181h46.545455V896zM0 535.272727h325.818182v-46.545454H0z"  horiz-adv-x="1024" />

    
    <glyph glyph-name="renlianduibi" unicode="&#59134;" d="M712.96 251.927273v-134.981818a96.116364 96.116364 0 0 1 95.534545-96.465455h34.909091A147.316364 147.316364 0 0 0 977.454545-68.654545V-128h46.545455V849.454545h-46.545455c-139.636364-2.792727-264.843636-117.527273-264.494545-257.62909v-128L650.007273 325.818182zM981.061818 849.454545a257.978182 257.978182 0 0 1-257.629091-257.62909V535.272727h120.901818a46.545455 46.545455 0 1 0 0-46.545454H723.432727v-24.901818L659.898182 325.818182l63.534545-74.123637V116.363636a96.581818 96.581818 0 0 1 96.465455-96.349091h21.643636A148.596364 148.596364 0 0 0 989.905455-128h-46.545455a102.050909 102.050909 0 0 1-101.934545 101.934545h-23.272728A143.127273 143.127273 0 0 0 676.887273 116.363636V234.705455L605.090909 318.487273l71.796364 155.578182V488.727273H347.112727v-14.661818L418.909091 318.487273l-71.796364-83.781818V116.363636a143.127273 143.127273 0 0 0-141.265454-142.312727h-23.272728A102.050909 102.050909 0 0 1 80.64-128h-46.545455a148.596364 148.596364 0 0 0 148.48 148.48h21.643637A96.581818 96.581818 0 0 1 300.567273 116.363636V251.927273L364.101818 325.818182l-63.534545 138.007273V488.727273H179.665455a46.545455 46.545455 0 1 0 0 46.545454h120.901818v56.552728A257.978182 257.978182 0 0 1 42.938182 849.454545H0V896h42.938182a304.523636 304.523636 0 0 0 304.174545-304.174545V535.272727h329.774546v56.552728A304.523636 304.523636 0 0 0 981.061818 896H1024v-46.545455z"  horiz-adv-x="1024" />

    
    <glyph glyph-name="renliansousuo" unicode="&#59136;" d="M442.012872 35.226177a417.133562 417.133562 0 0 0-300.643086 127.883756h268.788404A67.197101 67.197101 0 0 0 476.89026 229.609487h15.34605a94.285206 94.285206 0 0 1 93.006369 93.936432v16.276114l47.433248 55.106273-46.503184 102.190748v31.505907C586.172743 638.953766 448.523317 756.025532 337.380707 756.025532H152.995582A418.528658 418.528658 0 1 0 442.012872 35.226177zM976.79949-127.534968v13.137149l-46.503184 46.503185V-127.534968h-46.503185V11.974584h46.503185v-13.602181l46.503184-46.503184V11.974584h46.503184v-139.509552z m-106.02726 186.012737H804.737708l-63.709362 63.709362a443.872893 443.872893 0 1 0 33.017261 33.017261z m-29.529522 393.068164a397.020935 397.020935 0 1 1-397.020935-397.020935 397.020935 397.020935 0 0 1 397.020935 397.020935zM622.561484 325.17353A118.58312 118.58312 0 0 0 528.625052 209.613117v-2.557675h-38.830159A44.178025 44.178025 0 0 1 445.384352 163.109933h-46.503184a91.029983 91.029983 0 0 0 83.2407 90.448693h23.135334a71.614904 71.614904 0 0 1 70.801098 71.033614v25.576752l43.596735 50.572212-43.596735 93.820175v36.970031A178.455969 178.455969 0 0 1 397.021041 709.522348H337.380707v46.503184h59.524076a225.307927 225.307927 0 0 0 225.540443-224.494122v-26.623073L674.528793 393.068179l-51.967309-60.221623z m-193.918278 39.643965a38.481385 38.481385 0 0 1 24.181656-13.020892 40.225254 40.225254 0 0 1 28.018168 14.532245 23.251592 23.251592 0 0 0 33.133519 0 22.554044 22.554044 0 0 0 1.046322-31.854681A84.984569 84.984569 0 0 0 453.638668 305.990967h-3.371481a85.333343 85.333343 0 0 0-58.128981 30.110811 22.554044 22.554044 0 0 0 3.371481 31.854682 23.251592 23.251592 0 0 0 33.133519-3.138965zM744.283569-127.534968h-46.503184V11.974584h46.503184z m93.006368 93.006368h-46.503184v46.503184h46.503184z m0-93.006368h-46.503184v46.503184h46.503184z"  horiz-adv-x="1024" />

    
    <glyph glyph-name="zhengque" unicode="&#59133;" d="M514.048 836.608q93.184 0 174.592-35.328t142.336-96.768 96.256-143.36 35.328-175.104-35.328-175.616-96.256-143.872-142.336-96.768-174.592-35.328-175.104 35.328-142.848 96.768-96.256 143.872-35.328 175.616 35.328 175.104 96.256 143.36 142.848 96.768 175.104 35.328zM795.648 472.064q18.432 18.432 19.456 45.568t-17.408 45.568-45.056 17.92-45.056-18.944l-288.768-288.768-99.328 98.304q-18.432 18.432-45.056 18.944t-45.056-17.92-18.944-43.52 17.92-43.52l142.336-143.36q18.432-18.432 48.128-17.92t48.128 18.944l-4.096-4.096z"  horiz-adv-x="1024" />

    
    <glyph glyph-name="wuliankadingwei" unicode="&#59131;" d="M573.844211 297.633684L458.105263 413.237895V586.105263h53.894737v-150.501052l99.84-99.974737-37.995789-37.99579zM485.052632 653.473684a215.578947 215.578947 0 1 0-215.578948-215.578947 215.578947 215.578947 0 0 0 215.578948 215.578947m0 53.894737a269.473684 269.473684 0 1 1 269.473684-269.473684 269.473684 269.473684 0 0 1-269.473684 269.473684zM1185.684211 343.578947a53.894737 53.894737 0 1 1 53.894736-53.894736 53.894737 53.894737 0 0 1-53.894736 53.894736zM1185.684211 464.842105c104.016842 0 188.631579-88.926316 188.631578-198.332631 0-43.52-30.854737-123.014737-78.686315-202.105263C1245.911579-18.863158 1203.469474-60.631579 1185.684211-71.949474c-17.785263 11.317895-60.227368 53.086316-109.945264 135.814737C1027.907368 143.494737 997.052632 222.989474 997.052632 266.509474 997.052632 375.915789 1081.667368 464.842105 1185.684211 464.842105m0 53.894737c-133.928421 0-242.526316-112.909474-242.526316-252.227368C943.157895 141.473684 1115.486316-128 1185.684211-128s242.526316 269.473684 242.526315 394.509474C1428.210526 405.827368 1319.612632 518.736842 1185.684211 518.736842zM781.473684-20.210526H0V896h1075.604211l223.393684-223.528421-37.99579-37.99579L1053.237895 842.105263H53.894737v-808.421052h727.578947v-53.894737z"  horiz-adv-x="1428" />

    
    <glyph glyph-name="wuliankayewubanli" unicode="&#59132;" d="M781.473684 397.473684h-107.789473v-53.894737h107.789473v53.894737zM781.473684 545.684211h-107.789473v-53.894737h107.789473v53.894737zM781.473684 680.421053h-107.789473v-53.894737h107.789473v53.894737zM431.157895 626.526316v-377.263158H269.473684V626.526316h161.684211m53.894737 53.894737H215.578947v-485.052632h269.473685V680.421053zM1158.736842 168.421053a53.894737 53.894737 0 1 0-53.894737-53.894737 53.894737 53.894737 0 0 0 53.894737 53.894737m0 53.894736a107.789474 107.789474 0 1 1 107.789474-107.789473 107.789474 107.789474 0 0 1-107.789474 107.789473zM1261.675789 303.157895l104.825264-188.631579-104.825264-188.631579H1055.663158l-104.825263 188.631579 104.825263 188.631579h206.147368M1293.473684 357.052632H1024L889.263158 114.526316l134.736842-242.526316h269.473684l134.736842 242.526316-134.736842 242.526316zM781.473684-20.210526H0V896h1062.130526L1293.473684 664.656842V491.789474h-53.894737V642.290526L1039.764211 842.105263H53.894737v-808.421052h727.578947v-53.894737z"  horiz-adv-x="1428" />

    
    <glyph glyph-name="kaifaban1" unicode="&#59130;" d="M1024 512V640h-128V768h-128V896h-128v-128h-256V896H256v-128H128v-128H0v-128h128v-256H0v-128h128v-128h128v-128h128v128h256v-128h128v256H256V640h512v-384h128v256h128zM896 256h128v-128h-128zM384 512h256v-256h-256z"  horiz-adv-x="1024" />

    
    <glyph glyph-name="kaifawendang" unicode="&#59129;" d="M298.666667 640h268.970666v-136.533333H298.666667zM65.536 878.933333v-989.866666h606.208l295.253333 316.416V878.933333z m764.928-619.52l-218.112-233.813333h-409.6v716.8h627.712z"  horiz-adv-x="1024" />

    
    <glyph glyph-name="QQ" unicode="&#59119;" d="M360.448 444.416h315.733333v-136.533333h-315.733333zM897.365333 472.405333l-3.072 65.194667A371.029333 371.029333 0 0 1 518.485333 887.125333a371.029333 371.029333 0 0 1-375.466666-349.525333l-3.072-65.194667c-81.237333-197.290667-92.842667-328.021333-34.133334-389.12a138.24 138.24 0 0 1 51.882667-34.133333 152.917333 152.917333 0 0 1-3.413333-34.133333 125.269333 125.269333 0 0 1 80.896-118.784 189.781333 189.781333 0 0 1 43.349333-12.288 525.653333 525.653333 0 0 1 64.512-6.485334h73.728a375.466667 375.466667 0 0 1 95.573333 12.970667 457.386667 457.386667 0 0 1 110.250667-12.970667h70.997333a529.408 529.408 0 0 1 64.170667 6.485334 189.781333 189.781333 0 0 1 43.349333 12.288 125.269333 125.269333 0 0 1 80.896 118.784 144.725333 144.725333 0 0 1-3.754666 34.133333 138.581333 138.581333 0 0 1 51.882666 34.133333c59.733333 61.781333 48.128 191.829333-32.768 389.12z m-65.536-288.085333l-54.272 36.864-36.522666-65.536a238.933333 238.933333 0 0 0-18.773334-28.672L682.666667 73.386667l53.248-41.642667a39.936 39.936 0 0 0 10.24-10.922667l-9.216-2.048a412.672 412.672 0 0 0-47.445334-4.437333h-68.266666a307.2 307.2 0 0 0-90.453334 12.629333l-20.48 6.144-20.48-6.485333a246.101333 246.101333 0 0 0-74.410666-12.288h-66.56a409.6 409.6 0 0 0-47.786667 4.437333l-9.898667 2.389334a27.648 27.648 0 0 0 9.557334 10.922666l54.613333 40.96-40.96 54.613334a238.933333 238.933333 0 0 0-18.090667 27.648L259.413333 221.184 204.8 183.978667c-2.389333 31.402667 9.557333 114.005333 65.194667 246.784l4.778666 11.264 4.096 89.429333a234.837333 234.837333 0 0 0 238.933334 219.136 234.837333 234.837333 0 0 0 238.933333-219.136l4.096-89.429333 4.778667-11.264c56.661333-132.778667 68.608-215.04 66.218666-246.784z"  horiz-adv-x="1024" />

    
    <glyph glyph-name="dianhuarexian" unicode="&#59120;" d="M655.2576 215.176533l96.5632 96.5632 216.234667-216.2688-96.529067-96.529066zM115.029333 755.5072L211.626667 852.0704l216.234666-216.2688-96.529066-96.529067zM587.434667 177.152c-24.234667 0-51.541333 19.797333-96.938667 65.194667-76.117333 75.776-115.370667 114.005333-152.234667 151.210666-66.218667 68.266667-61.098667 102.4-39.253333 123.562667L238.933333 575.488 87.04 727.381333c-34.133333-36.864-102.4-246.784 223.232-561.493333 184.32-178.176 324.608-222.890667 416.085333-222.890667a190.805333 190.805333 0 0 1 114.688 31.402667l-216.746666 216.746667a61.44 61.44 0 0 0-36.864-13.994667z"  horiz-adv-x="1024" />

    
    <glyph glyph-name="zaixiangongdan" unicode="&#59121;" d="M68.266667 861.866667v-955.733334h567.637333v136.533334H204.8V725.333333h614.4v-819.2h136.533333V861.866667H68.266667zM614.4 622.933333h136.533333v-238.933333h-136.533333z"  horiz-adv-x="1024" />

    
    <glyph glyph-name="chanpinshoufeishuoming" unicode="&#59122;" d="M321.194667 543.402667h381.610666v-136.533334H321.194667zM321.194667 352.597333h381.610666v-136.533333H321.194667zM443.733333 162.133333h136.533334v-284.330666h-136.533334zM674.133333 856.064h-324.266666L512 666.965333l162.133333 189.098667zM149.504 384a360.789333 360.789333 0 0 0 202.069333 324.949333L290.816 831.488a498.688 498.688 0 0 1 68.266667-921.6v145.749333l-6.826667 3.072A360.789333 360.789333 0 0 0 149.504 384zM735.232 830.464L674.133333 708.266667a362.496 362.496 0 0 0 0-648.533334l-9.898666-4.437333v-146.432A499.029333 499.029333 0 0 1 1011.029333 384a496.64 496.64 0 0 1-275.797333 446.464z"  horiz-adv-x="1024" />

    
    <glyph glyph-name="zhinengkefu" unicode="&#59123;" d="M0 339.301587h135.449735v-237.037037H0zM880.42328 339.301587h135.449736v-237.037037h-135.449736zM510.645503 888.21164c-176.42328 0-320-157.460317-320-350.814815v-435.132275h135.449735V537.396825c0 118.857143 82.962963 215.365079 184.888889 215.36508s184.888889-96.507937 184.888889-215.36508v-314.58201c0-118.857143-82.962963-215.365079-184.888889-215.36508v-135.449735c176.761905 0 320.338624 157.460317 320.338624 350.814815v314.58201C830.984127 730.751323 687.407407 888.21164 510.645503 888.21164z"  horiz-adv-x="1024" />

    
    <glyph glyph-name="shangwuhezuo" unicode="&#59124;" d="M454.0416 329.216l96.529067 96.529067 201.045333-201.045334-96.529067-96.529066zM325.358933 200.465067l96.529067 96.5632 201.045333-201.045334-96.529066-96.5632zM362.154667 730.453333a341.333333 341.333333 0 0 1-241.322667-582.997333L397.653333-128l96.597334 96.597333-276.821334 275.456a204.8 204.8 0 0 0 289.792 289.792L785.066667 257.024l96.597333 96.597333-278.186667 276.821334a338.944 338.944 0 0 1-241.322666 100.010666zM902.144 767.658667a275.114667 275.114667 0 0 1-390.144 0l96.597333-96.597334a138.24 138.24 0 1 0 195.584-195.584l96.597334-96.597333a274.773333 274.773333 0 0 1 0 388.778667z"  horiz-adv-x="1024" />

    
    <glyph glyph-name="yijianfankui" unicode="&#59125;" d="M331.093333 629.077333h354.304v-136.533333H331.093333zM802.816 314.709333h136.533333v-136.533333h-136.533333zM802.133333 24.576h-580.266666V741.717333h462.165333v136.533334H85.333333v-990.208h853.333334v234.154666h-136.533334v-97.621333zM802.133333 877.568h136.533334v-501.418667h-136.533334z"  horiz-adv-x="1024" />

    
    <glyph glyph-name="changjianwenti2" unicode="&#59126;" d="M410.624 354.645333h136.533333v-136.533333h-136.533333zM547.157333 631.808h-136.533333v-204.8h136.533333v68.266667h136.533334V853.333333h-341.333334v-136.533333h204.8v-84.992zM854.357333 678.912V271.36l-341.333333-227.328-341.333333 227.328V678.912h-136.533334v-480.597333l477.866667-318.122667 477.866667 318.122667V678.912h-136.533334z"  horiz-adv-x="1024" />

    
    <glyph glyph-name="luntan" unicode="&#59127;" d="M610.304 877.568h386.048v-136.533333H610.304zM25.6 702.805333v-655.701333h231.082667l133.802666-155.306667 140.970667 155.306667h466.944V702.805333z m836.266667-519.509333H471.04l-77.824-85.674667-73.728 86.016H162.133333V566.272h699.733334zM298.666667 461.482667h170.666666v-170.666667h-170.666666z"  horiz-adv-x="1024" />

    
    <glyph glyph-name="youxiang" unicode="&#59128;" d="M887.466667 258.730667v-179.882667H136.533333v546.133333h602.453334l-224.938667-225.28-173.397333 173.397334-96.597334-96.597334 173.397334-173.056 96.597333-96.597333 96.256 96.597333 316.074667 316.074667v5.461333h0.341333v136.533334H0v-819.2h1024v316.416h-136.533333z"  horiz-adv-x="1024" />

    
    <glyph glyph-name="zhinengyunkefu" unicode="&#59118;" d="M832-128c-105.8816 0-192 86.1184-192 192V384h192C937.8816 384 1024 297.8816 1024 192v-128C1024-41.8816 937.8816-128 832-128z m64 320a64.06144 64.06144 0 0 1-64 64H768v-192a64.08192 64.08192 0 0 1 64-64 64.08192 64.08192 0 0 1 64 64v128z m-128 512a64.06144 64.06144 0 0 1-64 64h-384A64.06144 64.06144 0 0 1 256 704v-256H128v256C128 809.8816 214.1184 896 320 896h384c105.86112 0 192-86.1184 192-192v-256H768v256zM384 384v-320c0-105.8816-86.1184-192-192-192S0-41.8816 0 64v128C0 297.8816 86.1184 384 192 384h192z m-256-192v-128a64.08192 64.08192 0 0 1 64-64 64.08192 64.08192 0 0 1 64 64V256H192a64.06144 64.06144 0 0 1-64-64z"  horiz-adv-x="1024" />

    
    <glyph glyph-name="gongdanxitong" unicode="&#59112;" d="M857.378909-81.454545H632.192l-113.000727 197.748363 113.000727 197.76h225.186909l113.000727-197.76L857.378909-81.454545z m-112.593454 267.694545a69.818182 69.818182 0 1 1 0-139.613091 69.818182 69.818182 0 1 1 0 139.613091zM139.636364 430.545455v46.545454h232.727272v-46.545454H139.636364z m0 325.818181h465.454545v-46.545454H139.636364v46.545454z m465.454545-186.181818H139.636364v46.545455h465.454545v-46.545455z m279.296-698.181818H605.184L465.582545 116.293818l139.601455 244.305455H698.181818V849.454545H46.545455v-791.272727h325.818181v-46.545454H0V896h744.727273v-535.400727h139.659636L1024 116.293818 884.386909-128z m-27.008 442.053818H632.192l-113.000727-197.76L632.192-81.454545h225.186909l113.000727 197.748363-113.000727 197.76zM744.808727 11.752727c-57.844364 0-104.738909 46.882909-104.738909 104.715637 0 57.832727 46.894545 104.715636 104.738909 104.715636 57.844364 0 104.738909-46.882909 104.738909-104.715636 0-57.832727-46.894545-104.715636-104.738909-104.715637z m0 162.885818a58.251636 58.251636 0 0 1-58.193454-58.170181 58.251636 58.251636 0 0 1 58.193454-58.170182 58.251636 58.251636 0 0 1 58.193455 58.170182 58.251636 58.251636 0 0 1-58.193455 58.170181z"  horiz-adv-x="1024" />

    
    <glyph glyph-name="hujiaozhongxin" unicode="&#59113;" d="M512 640c141.381818 0 256-114.618182 256-256s-114.618182-256-256-256-256 114.618182-256 256 114.618182 256 256 256zM791.272727-128v46.545455h232.727273v-46.545455H791.272727z m93.090909 128h139.636364v-46.545455H884.363636v46.545455z m11.636364 628.363636h1.489455C810.077091 761.437091 659.490909 849.454545 488.727273 849.454545V896c295.144727 0 535.272727-240.128 535.272727-535.272727v-23.272728H896V628.363636z m46.545455-244.363636h34.362181A485.562182 485.562182 0 0 1 942.545455 542.161455V384zM372.363636 546.909091h46.545455v-325.818182h-46.545455V546.909091z m-116.363636-69.818182h46.545455v-186.181818h-46.545455V477.090909zM0 896h232.727273v-46.545455H0V896z m139.636364-128H0V814.545455h139.636364v-46.545455z m395.636363-127.988364V128h-46.545454V640.011636h46.545454zM128 151.272727h-1.489455C213.922909 18.210909 364.509091-69.818182 535.272727-69.818182v-46.545454C240.128-116.363636 0 123.764364 0 418.909091v23.272727h128v-290.909091zM81.454545 395.636364H47.092364A485.492364 485.492364 0 0 1 81.454545 237.486545V395.636364z m570.181819-174.545455h-46.545455V546.909091h46.545455v-325.818182z m116.363636 69.818182h-46.545455V477.090909h46.545455v-186.181818z"  horiz-adv-x="1024" />

    
    <glyph glyph-name="jiankongdaping" unicode="&#59114;" d="M977.454545 756.363636h-69.818181v-556.090181c27.322182-19.572364 51.2-43.112727 69.818181-65.093819V756.363636zM788.014545-81.454545c-86.737455 0-175.266909 110.941091-186.20509 139.636363 10.938182 28.695273 99.467636 139.636364 186.20509 139.636364 86.272 0 175.138909-110.871273 186.14691-139.636364-11.008-28.765091-99.409455-139.636364-186.14691-139.636363z m-2.56 221.090909a75.636364 75.636364 0 1 1 0-151.272728 75.636364 75.636364 0 0 1 0 151.272728zM1024 58.181818l-6.365091-16.64C1002.519273 2.059636 901.399273-128 788.014545-128c-113.582545 0-214.644364 130.094545-229.701818 169.6L551.994182 58.181818H116.363636v46.545455h458.775273c9.483636 13.975273 22.318545 30.208 37.655273 46.545454H0V896h907.636364v-93.090909h116.363636v-744.727273zM861.090909 849.454545H46.545455v-651.636363h618.46109c36.177455 26.589091 78.603636 46.545455 123.008 46.545454 25.262545 0 49.861818-6.539636 73.076364-17.012363V849.454545z m-73.076364-651.636363c-86.737455 0-175.266909-110.941091-186.20509-139.636364 10.938182-28.695273 99.467636-139.636364 186.20509-139.636363 86.737455 0 175.138909 110.871273 186.14691 139.636363-11.008 28.765091-99.874909 139.636364-186.14691 139.636364zM977.454545 756.363636h-69.818181v-556.090181c27.322182-19.572364 51.2-43.112727 69.818181-65.093819V756.363636zM787.991273-34.920727c-51.328 0-93.090909 41.762909-93.090909 93.090909 0 51.339636 41.762909 93.090909 93.090909 93.090909 51.339636 0 93.090909-41.751273 93.090909-93.090909 0-51.328-41.751273-93.090909-93.090909-93.090909z m0 139.636363a46.545455 46.545455 0 1 1 0-93.090909 46.545455 46.545455 0 0 1 0 93.090909zM137.902545 330.635636L611.909818 804.642909l32.907637-32.907636L170.821818 297.728l-32.919273 32.907636z m-14.72 186.181819l256 256 32.907637-32.907637-256-256-32.907637 32.907637z"  horiz-adv-x="1024" />

    
    <glyph glyph-name="zaixiankefu" unicode="&#59115;" d="M673.722182 171.531636L523.636364 0h-23.272728L350.277818 171.531636C265.728 221.056 209.454545 308.002909 209.454545 407.272727c0 154.24 135.447273 279.272727 302.545455 279.272728 167.086545 0 302.545455-125.032727 302.545455-279.272728 0-99.269818-56.285091-186.216727-140.823273-235.741091zM954.181818 177.873455c-38.504727 0-69.818182 31.313455-69.818182 69.818181v139.636364a69.911273 69.911273 0 0 0 42.763637 64.349091C917.76 672.605091 735.185455 849.454545 512 849.454545 288.814545 849.454545 106.24 672.605091 96.861091 451.677091A69.899636 69.899636 0 0 0 139.636364 387.328v-139.636364c0-38.504727-31.325091-69.818182-69.818182-69.818181-38.504727 0-69.818182 31.313455-69.818182 69.818181v139.636364c0 31.709091 21.376 58.24 50.385455 66.722909C60.986182 699.531636 263.947636 896 512 896s451.013818-196.468364 461.614545-441.949091c29.009455-8.482909 50.385455-35.013818 50.385455-66.722909v-139.636364c0-38.504727-31.313455-69.818182-69.818182-69.818181z m-907.636363 69.818181c0-12.834909 10.437818-23.272727 23.272727-23.272727s23.272727 10.437818 23.272727 23.272727v139.636364c0 12.834909-10.437818 23.272727-23.272727 23.272727s-23.272727-10.437818-23.272727-23.272727v-139.636364z m930.90909 139.636364c0 12.834909-10.437818 23.272727-23.272727 23.272727s-23.272727-10.437818-23.272727-23.272727v-139.636364c0-12.834909 10.437818-23.272727 23.272727-23.272727s23.272727 10.437818 23.272727 23.272727v139.636364z m-465.454545 302.545455c167.086545 0 302.545455-125.032727 302.545455-279.272728 0-99.269818-56.273455-186.216727-140.823273-235.752727L523.636364 3.328h-23.272728l-150.085818 171.52C265.728 224.384 209.454545 311.330909 209.454545 410.600727c0 154.24 135.447273 279.272727 302.545455 279.272728zM373.806545 215.016727l6.516364-3.828363 4.980364-5.678546L512 60.706909l126.696727 144.802909 4.968728 5.678546 6.528 3.828363C723.956364 258.222545 768 331.345455 768 410.600727c0 128.325818-114.839273 232.727273-256 232.727273s-256-104.401455-256-232.727273c0-79.255273 44.032-152.378182 117.806545-195.584zM512 379.566545c41.448727 0 76.462545 24.866909 76.462545 54.30691h46.545455c0-55.610182-55.179636-100.852364-123.008-100.852364s-123.008 45.242182-123.008 100.852364h46.545455c0-29.44 35.013818-54.306909 76.462545-54.30691zM768-128H256v46.545455h512v-46.545455z"  horiz-adv-x="1024" />

    
    <glyph glyph-name="zhijianzhongxin" unicode="&#59116;" d="M867.339636 301.754182c-13.579636-29.463273-28.625455-58.298182-45.719272-86.062546-83.165091-135.424-192.465455-252.311273-321.303273-343.598545-128.837818 91.287273-238.138182 208.174545-321.303273 343.598545a809.425455 809.425455 0 0 0-50.362182 95.697455c70.807273-15.592727 435.502545-88.506182 738.688-9.634909zM512 127.965091H372.363636v46.545454h139.636364v-46.545454zM1024 384c0-40.773818-64.116364-77.474909-166.306909-103.005091a808.203636 808.203636 0 0 0-36.072727-65.326545A1173.573818 1173.573818 0 0 0 500.317091-128c-117.701818 83.421091-218.845091 188.381091-298.903273 309.143273 17.652364 1.570909 35.316364 3.176727 52.829091 4.817454 68.305455-98.397091 150.690909-184.413091 246.074182-256.302545 112.535273 84.805818 207.173818 189.090909 281.634909 310.365091a777.309091 777.309091 0 0 1 16.453818 28.206545C716.660364 253.149091 618.100364 244.340364 512 244.340364 229.224727 244.340364 0 306.874182 0 384c0 27.473455 29.137455 53.061818 79.348364 74.658909a817.221818 817.221818 0 0 0-21.189819 178.338909V805.585455a1064.715636 1064.715636 0 0 0 250.309819 74.926545A1128.052364 1128.052364 0 0 0 494.743273 896H499.351273a1118.08 1118.08 0 0 0 443.124363-91.659636v-167.342546a818.827636 818.827636 0 0 0-19.246545-169.832727C986.507636 443.938909 1024 415.173818 1024 384zM47.36 384c4.829091-7.051636 23.458909-22.248727 67.328-38.667636a822.772364 822.772364 0 0 0-23.272727 67.665454C64.104727 400.500364 51.211636 389.632 47.36 384z m848.570182 389.259636a1064.704 1064.704 0 0 1-396.567273 76.183273h-4.619636c-59.648 0-119.738182-4.992-178.583273-14.848a1017.972364 1017.972364 0 0 1-211.456-59.904v-137.693091a769.419636 769.419636 0 0 1 67.746909-309.504c2.478545-0.628364 4.840727-1.28 7.400727-1.908363C270.545455 303.220364 388.503273 290.897455 512 290.897455c115.281455 0 225.442909 10.856727 313.390545 30.475636a770.269091 770.269091 0 0 1 70.539637 315.997091V773.259636z m15.895273-351.581091a813.847273 813.847273 0 0 0-29.230546-85.422545c63.36 19.665455 88.331636 39.400727 94.045091 47.744-4.736 6.912-22.784 21.655273-64.814545 37.678545zM430.545455 512.023273h256v-46.557091H430.545455v46.557091zM186.181818 651.682909h256v-46.557091H186.181818v46.557091z"  horiz-adv-x="1024" />

    
    <glyph glyph-name="zhinengwaihu" unicode="&#59117;" d="M23.301025 733.079008l183.487563 11.473064C209.29032 661.389816 237.274821 584.755338 267.656331 511.995636l-69.815802-93.087735c72.573526-147.800052 212.914923-288.141449 360.714975-360.714975l69.815802 81.451768c76.227219-31.82437 144.94924-46.543868 232.719339-46.543868v-197.811438C423.345568-75.760326 23.301025 244.670932 23.301025 733.079008z m186.175471 11.635967l-2.687908-0.162903c-0.127996 3.944593-0.488711 7.831006-0.488711 11.810506L209.476496 744.714975z m302.53514-325.807074a69.815802 69.815802 0 1 0 0 139.631603 69.815802 69.815802 0 0 0 0-139.631603zM956.191402 473.596945v-47.428201c0-82.906264-67.895867-150.348329-151.360658-150.348329a104.106996 104.106996 0 0 1-96.950876-66.103928 583.869549 583.869549 0 0 0-44.426122 15.976183c21.701078 56.667159 76.809018 97.11378 141.376998 97.11378 57.388589 0 104.060452 46.357692 104.060453 103.362294v70.013613l50.511732 40.144086-50.511732 70.234697v54.514505c0 59.739054-28.310308 112.938695-72.189539 147.392793l-49.569219-49.255048H718.666409v-91.365612L591.403839 541.399725a92.505937 92.505937 0 0 0 10.751633-43.297433c0-51.55897-42.075656-93.366999-93.972069-93.366999a93.983705 93.983705 0 0 0-39.992818 8.959695l-98.370465-97.742123-33.232321 33.011239 95.333477 94.71677a92.389578 92.389578 0 0 0-17.721578 54.421418c0 51.570605 42.075656 93.390271 93.983705 93.390271a93.902253 93.902253 0 0 0 51.663693-15.429293l111.833279 111.123485V805.908525h95.996727l27.542334 27.367795a189.247366 189.247366 0 0 1-75.529062 15.720191H596.872743L394.965445 648.380805l-33.232322 33.011238L577.69667 895.982545h141.993704c130.415917 0 236.501028-105.386953 236.501028-234.9069v-39.457564l67.7446-94.193152-67.7446-53.827984z m-448.007999 71.200482c-25.913298 0-46.99767-20.94474-46.99767-46.695135 0-25.738759 21.084372-46.671863 46.99767-46.671864 25.901662 0 46.986035 20.933105 46.986035 46.671864 0 25.750395-21.084372 46.695135-46.986035 46.695135z m49.685579-456.316079l79.787825 74.121109a642.910445 642.910445 0 0 1 247.985728-49.45286V-127.982545C396.513028-127.982545 0.005819 267.849778 0.005819 756.118223h241.539402a640.036362 640.036362 0 0 1 49.534311-247.555197l-74.225833-79.648194a747.063986 747.063986 0 0 1 341.015283-340.433484zM236.995558 518.837585a682.216742 682.216742 0 0 0-40.528073 190.748406H47.899459c23.423201-424.864061 365.532266-766.379691 791.129392-789.756348V68.153313a685.882071 685.882071 0 0 0-191.085849 40.446621l-58.331102-54.177062L566.118883 32.593798l-28.799019 14.126064c-156.689931 76.809018-285.360453 205.258457-362.309102 361.680761l-14.149336 28.752474 21.863982 23.458109 54.27015 58.226379z"  horiz-adv-x="1024" />

    
    <glyph glyph-name="simdianhua" unicode="&#59111;" d="M341.333333 48.355556h341.333334v92.103111H341.333333V48.355556zM703.089778 896H320.853333A150.186667 150.186667 0 0 1 170.666667 745.756444v-723.512888A150.186667 150.186667 0 0 1 320.853333-128h382.236445A150.186667 150.186667 0 0 1 853.333333 22.243556V745.756444A150.186667 150.186667 0 0 1 703.089778 896z m44.999111-873.756444a45.056 45.056 0 0 0-44.999111-44.999112H320.853333a45.056 45.056 0 0 0-44.942222 44.999112V745.756444a45.056 45.056 0 0 0 44.942222 44.999112h382.236445a45.056 45.056 0 0 0 44.999111-44.999112v-723.512888z"  horiz-adv-x="1024" />

    
    <glyph glyph-name="kuaisuguolv" unicode="&#59109;" d="M712.750545 58.600727l-69.189818 69.189818 32.581818 32.581819 69.189819-69.189819z m0 161.419637l-69.189818 69.189818 32.581818 32.581818 69.189819-69.189818zM412.951273 658.176l-92.229818 92.253091 32.581818 32.581818 92.229818-92.253091z m69.189818-207.546182l-92.229818 92.253091 32.581818 32.581818 92.253091-92.253091z m-184.482909-69.166545l-92.253091 92.229818 32.581818 32.581818 92.253091-92.253091z m46.126545 207.546182l-253.672727 253.672727 32.581818 32.581818 253.672727-253.672727z m645.678546-714.891637l-161.419637 161.419637 32.581819 32.581818 161.419636-161.419637zM389.888 427.566545l-161.419636 161.419637 32.581818 32.581818 161.419636-161.419636zM182.341818 635.112727L20.945455 796.532364l32.581818 32.581818 161.442909-161.396364z m552.029091 182.365091c-57.344 0-144.290909-42.752-238.801454-113.780363l33.210181-33.210182c89.250909 66.048 164.305455 100.235636 205.591273 100.235636a34.909091 34.909091 0 0 0 25.437091-7.796364C793.6 728.436364 723.642182 560.872727 532.666182 366.196364c-154.135273-157.067636-299.729455-239.243636-363.892364-239.243637a34.909091 34.909091 0 0 0-25.413818 7.796364c-21.666909 22.062545-0.605091 98.676364 67.118545 201.821091l-33.256727 33.210182c-76.939636-114.501818-114.036364-219.578182-66.327273-268.125091a77.637818 77.637818 0 0 1 57.856-21.480728c88.599273 0 247.877818 101.632 396.334546 252.951273 169.309091 172.497455 301.684364 386.885818 227.141818 462.801455a77.684364 77.684364 0 0 1-57.879273 21.504z"  horiz-adv-x="1024" />

    
    <glyph glyph-name="D" unicode="&#59110;" d="M767.895273 503.470545v31.65091L512 686.382545l-255.860364-151.272727v-302.545454L512 81.349818l255.860364 151.272727V503.412364z m-65.326546 16.209455L512 410.693818l-190.533818 108.962909L512 632.32z m-399.848727-42.926545L488.727273 370.408727v-221.207272l-186.007273 109.963636v217.6z m418.629818-217.6L535.272727 149.154909V370.373818l186.077091 106.426182v-217.6zM323.746909-41.669818A466.152727 466.152727 0 0 0 46.545455 384H0a512.581818 512.581818 0 0 1 512-512h39.202909l-101.888 186.786909z m50.711273-19.048727l60.590545 48.47709 36.817455-67.490909a462.475636 462.475636 0 0 0-97.408 19.013819zM512 896h-39.202909l101.888-186.786909 125.568 100.456727A466.141091 466.141091 0 0 0 977.454545 384h46.545455A512.581818 512.581818 0 0 1 512 896z m76.951273-115.758545l-36.817455 67.490909a462.231273 462.231273 0 0 0 97.408-19.013819z"  horiz-adv-x="1024" />

    
    <glyph glyph-name="weitianbaogenzong" unicode="&#59108;" d="M511.988364-127.930185c-114.473342 0-395.618381 426.208991-395.618381 624.599973C116.369983 717.227035 293.479024 896 511.988364 896c218.497705 0 395.618381-178.772965 395.618381-399.330212 0-198.390982-281.156675-624.599973-395.618381-624.599973zM511.988364 721.427571c-128.52943 0-232.716695-104.187264-232.716694-232.716694s104.187264-232.716695 232.716694-232.716695c128.517795 0 232.716695 104.187264 232.716695 232.716695s-104.1989 232.716695-232.716695 232.716694zM1023.965093 465.439207H905.407573C880.006545 256.948321 620.783419-127.988364 511.988364-127.988364c-108.806691 0-368.018181 384.936685-393.430844 593.427571H0.011636v46.543339h116.74233C124.75942 725.418663 298.587155 895.965092 511.988364 895.965092c213.401209 0 387.228944-170.54643 395.234399-383.982546H1023.965093v-46.543339zM310.164811 135.45857C408.627244-17.517749 490.194446-81.293759 511.988364-81.445025c21.782283 0.151266 103.349484 63.927276 201.823554 216.903595C792.644698 257.949002 846.832781 382.533885 858.59661 465.439207h-115.06677C731.847462 347.847461 632.651971 255.994182 511.988364 255.994182c-120.675242 0-219.870733 91.853279-231.541475 209.445025h-115.078405c11.763829-82.905322 65.963547-207.490205 144.796327-329.980637zM696.544339 511.982546C685.036499 603.672924 606.738967 674.884233 511.988364 674.884233c-94.762238 0-173.048134-71.211309-184.56761-162.901687H372.358348v-46.543339h-44.937594c11.519476-91.678742 89.805372-162.901686 184.56761-162.901686 94.750602 0 173.048134 71.222944 184.555975 162.901686H651.618381v46.543339h44.925958zM511.988364 849.421754C324.628154 849.421754 171.721649 699.366029 163.681287 511.982546h116.765602C292.117631 629.585928 391.313122 721.427571 511.988364 721.427571c120.663606 0 219.859097-91.841644 231.541476-209.445025h116.753966C852.243444 699.366029 699.336939 849.421754 511.988364 849.421754z m0-407.254216a46.543339 46.543339 0 1 0 0 93.086678 46.543339 46.543339 0 0 0 0-93.086678z"  horiz-adv-x="1024" />

    
    <glyph glyph-name="renyuanguanli" unicode="&#59104;" d="M857.378909-81.466182H632.203636l-113.012363 197.76 113.012363 197.76h225.175273l113.012364-197.76-113.012364-197.76z m-112.593454 267.706182a69.818182 69.818182 0 0 1 0-139.613091 69.806545 69.806545 0 1 1 0 139.613091zM884.398545-128H605.184L465.582545 116.293818l139.601455 244.293818h279.214545L1024 116.293818 884.398545-128z m-27.019636 442.053818H632.203636l-113.012363-197.76 113.012363-197.76h225.175273l113.012364 197.76-113.012364 197.76zM744.808727 11.752727c-57.844364 0-104.738909 46.882909-104.738909 104.715637 0 57.832727 46.894545 104.704 104.738909 104.704 57.844364 0 104.738909-46.871273 104.738909-104.704s-46.894545-104.715636-104.738909-104.715637z m0 162.885818c-32.081455 0-58.181818-26.100364-58.181818-58.170181 0-32.081455 26.100364-58.181818 58.181818-58.181819a58.263273 58.263273 0 0 1 58.193455 58.181819 58.251636 58.251636 0 0 1-58.193455 58.170181zM407.319273 430.603636c-128.546909 0-232.750545 104.180364-232.750546 232.704C174.568727 791.819636 278.772364 896 407.319273 896c128.546909 0 232.750545-104.180364 232.750545-232.692364 0-128.523636-104.203636-232.704-232.750545-232.704z m0 418.862546c-102.667636 0-186.205091-83.514182-186.205091-186.158546 0-102.656 83.537455-186.158545 186.205091-186.158545 102.667636 0 186.205091 83.502545 186.205091 186.158545 0 102.644364-83.537455 186.158545-186.205091 186.158546z m138.961454-488.669091l-26.507636-46.545455H256.034909C140.520727 314.251636 46.545455 220.311273 46.545455 104.832v-232.704H0V104.832c0 141.137455 114.850909 255.965091 256.034909 255.965091h290.245818zM162.920727-127.872h-46.545454V104.832h46.545454v-232.704z"  horiz-adv-x="1024" />

    
    <glyph glyph-name="yichangshaicha" unicode="&#59105;" d="M815.650655 197.818182c64.162909 0 116.363636-52.200727 116.363636-116.363637s-52.200727-116.363636-116.363636-116.363636-116.363636 52.200727-116.363637 116.363636 52.200727 116.363636 116.363637 116.363637M859.717564 286.149818A416 416 0 0 1 885.468836 430.545455C885.468836 661.527273 697.541564 849.454545 466.559745 849.454545 235.566291 849.454545 47.650655 661.527273 47.650655 430.545455s187.915636-418.909091 418.90909-418.909091c50.734545 0 99.362909 9.122909 144.384 25.751272a207.744 207.744 0 0 1 15.01091-44.16A464.174545 464.174545 0 0 0 466.559745-34.909091C209.4892-34.909091 1.1052 173.486545 1.1052 430.545455S209.4892 896 466.559745 896c257.058909 0 465.454545-208.395636 465.454546-465.454545a464.174545 464.174545 0 0 0-28.136727-159.39491 207.057455 207.057455 0 0 1-44.16 14.999273z m26.158545-57.867636l0 0zM654.847745 56.517818l0 0zM396.741564 686.545455h139.636363v-325.818182H396.741564V686.545455zM396.741564 314.181818h139.636363v-139.636363H396.741564V314.181818zM396.741564 174.545455V314.181818h139.636363v-139.636363H396.741564z m93.090909 93.090909h-46.545455v-46.545455h46.545455v46.545455z m-93.090909 418.909091h139.636363v-325.818182H396.741564V686.545455z m46.545454-279.272728h46.545455V640h-46.545455v-232.727273zM815.650655 197.818182c64.162909 0 116.363636-52.200727 116.363636-116.363637s-52.200727-116.363636-116.363636-116.363636-116.363636 52.200727-116.363637 116.363636 52.200727 116.363636 116.363637 116.363637m0 46.545454c-89.972364 0-162.909091-72.936727-162.909091-162.909091s72.936727-162.909091 162.909091-162.90909 162.909091 72.936727 162.90909 162.90909-72.936727 162.909091-162.90909 162.909091zM988.7532-122.845091l-82.629818 82.641455 33.384727 33.384727 82.641455-82.629818-33.396364-33.396364z"  horiz-adv-x="1026" />

    
    <glyph glyph-name="wentitianbao" unicode="&#59106;" d="M694.414984-119.761829l-107.131131-8.214899 8.238171 106.816963L925.141951 307.529295l98.89296-98.6137-329.619927-328.677424z m-53.734285 77.890278l-2.746057-35.605655 35.710377 2.734422 284.461252 283.658379-32.96432 32.871233-284.461252-283.658379zM0.11636 36.06527V896.000001h862.401529v-567.421481L569.155223 36.06527H0.11636zM815.893099 849.514841H46.729514v-766.964411h503.133495l266.03009 265.27376V849.514841zM488.216356 392.529067a55.212036 55.212036 0 0 1-38.96841-67.569292l-45.030681-12.008181c-14.172447 52.884869 16.359984 107.305668 68.290715 123.30494l-0.349076 1.279942c60.227081 16.138903 96.088723 78.309168 79.938185 138.55952a112.262534 112.262534 0 0 1-52.803418 68.744512 112.343984 112.343984 0 0 1-85.616472 11.216945c-60.227081-16.138903-96.088723-78.285896-79.938185-138.547885l-45.03068-12.008181c-22.782964 84.988137 27.856188 172.664152 112.867597 195.447116a158.70115 158.70115 0 0 0 121.024317-15.859643 158.480069 158.480069 0 0 0 74.550793-96.996318c22.433889-83.754739-26.48316-169.98791-109.272124-194.283533l0.337439-1.279942z m-68.558338-124.049634a23.271669 23.271669 0 0 0 23.318213-23.236762 23.283305 23.283305 0 0 0-23.318213-23.248398 23.271669 23.271669 0 0 0-23.306577 23.248398 23.271669 23.271669 0 0 0 23.306577 23.236762z m594.358439-395.106404H827.552205v46.485159h186.464252v-46.485159z"  horiz-adv-x="1024" />

    
    <glyph glyph-name="yiqingfenxi" unicode="&#59107;" d="M799.59771 372.670428c-77.736938-33.789324-103.438091-95.836342-72.37499-174.715804 11.131133-28.246382 10.10173-39.219145 9.434314-42.126362-2.975089-0.656103-14.705765-1.368767-42.148985 9.434314-21.979463 8.665089-42.759841 13.042883-61.786839 13.042883-34.558549 0-82.21654-14.807574-112.906342-85.395248-12.1266-27.873081-20.622008-34.909224-23.1333-36.48161-2.511292 1.572386-11.0067 8.608529-23.1333 36.48161-30.689801 70.587674-78.347793 85.395248-112.906341 85.395248-19.026998 0-39.807376-4.377793-61.786839-13.042883-27.454533-10.803081-39.196521-10.090417-42.160298-9.434314-0.656103 2.907217-1.685507 13.87998 9.445626 42.126362 31.063101 78.879463 5.361948 140.92648-72.374989 174.715804-27.816521 12.103976-34.875288 20.599384-36.458986 23.110676 1.583698 2.533916 8.642465 11.018012 36.458986 23.121988 77.736938 33.789324 103.438091 95.847654 72.374989 174.715805-11.131133 28.257694-10.10173 39.230457-9.434314 42.115049 2.963777 0.723976 14.694453 1.38008 42.148986-9.434314 21.968151-8.653777 42.759841-13.042883 61.775527-13.042883 34.569861 0 82.227853 14.818887 112.917653 85.417873 12.1266 27.873081 20.622008 34.897912 23.1333 36.458986 2.511292-1.561074 11.0067-8.585905 23.1333-36.458986 30.689801-70.598986 78.347793-85.417872 112.917654-85.417873 19.015686 0 39.807376 4.389105 61.775527 13.042883 27.465845 10.837018 39.173896 10.15829 42.160298 9.434314 0.656103-2.884592 1.685507-13.868668-9.445627-42.115049-31.063101-78.868151-5.361948-140.92648 72.37499-174.715805 27.816521-12.103976 34.875288-20.588071 36.458986-23.121988-1.583698-2.511292-8.631153-11.0067-36.458986-23.110676zM441.17296 542.341024a67.872763 67.872763 0 1 1 0-135.745526 67.872763 67.872763 0 0 1 0 135.745526zM828.816935 460.181044c27.397972-11.91167 63.823022-31.549523 63.834333-64.377316 0-32.839105-36.436362-52.48827-63.834333-64.388627-3.042962-1.323519-5.90493-2.692286-8.699026-4.083678 143.697952-178.166003 230.394094-346.162404 167.351609-408.842901-13.959165-13.87998-33.495209-20.916123-58.076461-20.916123-76.46998 0-206.593379 70.859165-352.508507 187.000774-1.538449-3.03165-3.054274-6.199046-4.536163-9.603996-11.91167-27.409284-31.549523-63.845646-64.377316-63.845646-32.827793 0-52.465646 36.436362-64.377316 63.845646-0.271491 0.622167-0.554294 1.153837-0.825785 1.764692C263.991112-68.581717 95.123678-156.510881 32.250875-92.925414c-13.87998 14.03835-20.916123 33.687515-20.916124 58.404512 0 77.635129 72.205308 210.258508 190.315228 358.696241a165.22493 165.22493 0 0 1-14.513459 7.239762c-27.409284 11.900358-63.845646 31.549523-63.845646 64.388627 0.011312 32.827793 36.436362 52.465646 63.845646 64.377316 55.802723 24.264513 70.746043 60.338886 48.438529 116.944771-15.554175 39.490636-17.013439 66.390874-4.615348 84.626024 6.018052 8.834771 18.020219 19.366362 41.085646 19.366361 14.637893 0 32.488429-4.230736 54.569701-12.929761 16.708012-6.572346 31.945447-9.920736 45.30507-9.920736 10.984075 0 24.773559 1.900437 38.755347 12.375468C263.844054 787.248578 144.523737 847.904204 86.458588 847.904204c-12.092664 0-20.825626-2.590477-25.95002-7.680935-26.142326-25.995268 8.257853-125.07819 105.949384-263.346321l-35.655825-27.556341c-19.162743 27.035984-36.730477 53.461113-52.013161 78.788965C5.169642 750.110864-11.787237 832.225595 28.382127 872.168716 42.341292 886.037384 61.877336 893.073527 86.458588 893.073527c76.413419 0 206.446321-70.802604 352.237016-186.763219 1.651571 3.235268 3.291829 6.640219 4.898151 10.327972 11.922982 27.397972 31.549523 63.834334 64.377316 63.834333 32.827793 0 52.454334-36.436362 64.377316-63.834333 22.748688-52.318588 51.79823-58.370576 71.673638-58.370577 13.359622 0 28.597058 3.34839 45.305069 9.920736 22.081272 8.699026 39.931809 12.929761 54.569702 12.929761 23.065427 0 35.067594-10.53159 41.085646-19.366361 12.398091-18.235149 10.938827-45.124075-4.615348-84.626024-14.751014-37.420517-13.099443-65.825268 5.746561-87.816043 115.485506 146.661729 175.54159 265.755804 175.541589 323.866201 0 12.160537-2.579165 20.938747-7.669622 26.097078-26.00658 26.289384-125.07819-8.303101-263.346321-106.548926L663.082959 768.583568c27.035984 19.275865 53.461113 36.934095 78.788966 52.307276C863.873217 894.917404 945.987948 911.976092 985.931069 871.580486c13.868668-14.03835 20.904811-33.687515 20.904811-58.404513 0-76.164552-69.55827-205.303796-183.697633-350.336579 1.877813-0.893658 3.687753-1.798628 5.678688-2.65835z m-90.304712 133.437853c11.131133 28.257694 10.10173 39.241769 9.445627 42.126361-2.986402 0.712664-14.705765 1.402704-42.160298-9.434314-21.968151-8.653777-42.759841-13.042883-61.775527-13.042882-34.569861 0-82.227853 14.818887-112.917654 85.417872-12.1266 27.873081-20.622008 34.8866-23.1333 36.458986-2.511292-1.572386-11.0067-8.585905-23.1333-36.458986-30.689801-70.598986-78.347793-85.417872-112.917653-85.417872-19.015686 0-39.807376 4.389105-61.775527 13.042882-27.454533 10.814394-39.185209 10.146978-42.148986 9.434314-0.667416-2.884592-1.696819-13.868668 9.423002-42.126361 31.074413-78.856839 5.37326-140.915168-72.363677-174.704493-27.816521-12.103976-34.875288-20.588071-36.458986-23.121988 1.583698-2.511292 8.642465-11.0067 36.458986-23.110675 9.219384-4.015805 17.556421-8.484095 25.248667-13.303062a2406.089453 2406.089453 0 0 0 78.494851 89.954035l30.011073-34.479363C153.335884 211.97035 56.515387 39.449098 56.515387-34.520902c0-12.160537 2.579165-20.938747 7.680935-26.097077 31.334592-31.69658 169.025804 25.350477 353.470038 175.530277-16.300775 15.814354-32.91829 18.404831-45.73493 18.404831-13.359622 0-28.60837-3.337078-45.316382-9.920735-22.081272-8.687714-39.931809-12.918449-54.569701-12.91845-23.065427 0-35.078906 10.53159-41.085646 19.366362-12.409404 18.235149-10.938827 45.124075 4.615348 84.626024a161.197812 161.197812 0 0 1 6.481849 20.192147l40.938588-20.474951a209.161232 209.161232 0 0 0-5.576879-16.22159c-11.119821-28.246382-10.090417-39.230457-9.434314-42.126362 2.963777-0.656103 14.705765-1.368767 42.160298 9.434315 21.979463 8.665089 42.759841 13.042883 61.786839 13.042882 34.558549 0 82.21654-14.807574 112.906341-85.395248 12.1266-27.873081 20.622008-34.909224 23.1333-36.48161 2.511292 1.572386 11.0067 8.608529 23.1333 36.48161 3.257893 7.488628 6.742028 14.19672 10.350597 20.486262a2410.048697 2410.048697 0 0 0-93.200616 81.62831l34.29837 30.011074a2303.907008 2303.907008 0 0 1 86.831888-75.904374c0.588231 0.542982 1.153837 1.233022 1.75338 1.75338 11.91167-9.954672 23.721531-19.626541 35.452206-29.015606-0.633479-0.452485-1.266958-0.984155-1.900437-1.470577C751.781349 3.476533 871.260036-57.246965 929.393057-57.246965c12.092664 0 20.825626 2.579165 25.95002 7.680934 31.289344 31.10835-24.434195 167.023558-171.299542 349.397672-16.91163-21.640099-17.873161-49.332187-3.676441-85.361311 15.554175-39.501948 17.013439-66.390874 4.615348-84.614712-6.018052-8.846083-18.020219-19.366362-41.085646-19.377674-14.558708 0-32.296123 4.196799-54.207714 12.782704L690.039758 123.792318l19.965905 39.931809c24.321073-9.049702 35.135467-8.50672 37.940874-7.884553 0.667416 2.895905 1.696819 13.87998-9.434314 42.126362-31.063101 78.868151-5.361948 140.92648 72.37499 174.715805 27.827833 12.103976 34.875288 20.599384 36.458986 23.110675-1.583698 2.533916-8.642465 11.018012-36.458986 23.121988-77.736938 33.789324-103.438091 95.847654-72.37499 174.704493zM588.230614 259.537844a45.248509 45.248509 0 1 0 0 90.497018 45.248509 45.248509 0 0 0 0-90.497018zM441.17296 383.971243c-49.897793 0-90.497017 40.599224-90.497017 90.497018s40.599224 90.497017 90.497017 90.497017 90.497017-40.599224 90.497018-90.497017-40.599224-90.497017-90.497018-90.497018z m0 135.745527c-24.954553 0-45.248509-20.293956-45.248508-45.248509s20.293956-45.248509 45.248508-45.248509 45.248509 20.293956 45.248509 45.248509-20.293956 45.248509-45.248509 45.248509z"  horiz-adv-x="1025" />

    
    <glyph glyph-name="changjianwenti1" unicode="&#59103;" d="M512 104.727273m-46.545455 0a46.545455 46.545455 0 1 1 93.09091 0 46.545455 46.545455 0 1 1-93.09091 0ZM325.818182 500.363636h46.545454a139.636364 139.636364 0 1 0 219.927273-113.570909A234.356364 234.356364 0 0 1 488.727273 197.818182h46.545454a186.181818 186.181818 0 0 0 83.549091 151.970909A186.181818 186.181818 0 1 1 325.818182 500.363636zM614.865455-81.454545H512a465.454545 465.454545 0 1 0 465.454545 465.454545v-372.363636h46.545455V384a512 512 0 1 1-512-512h372.363636v46.545455z"  horiz-adv-x="1024" />

    
    <glyph glyph-name="shujufenxifuwu" unicode="&#59102;" d="M230.4 506.368H153.6v-244.48h76.8c67.84 0 98.048 37.632 98.048 122.368 0.256 102.144-38.912 122.112-98.048 122.112z m-3.328-179.2h-11.264v114.688h11.264c27.392 0 36.608-8.448 36.608-57.856s-8.96-56.576-36.352-56.576zM406.528 311.552h66.048l13.824-49.92h66.816l-72.192 244.48h-80.896l-72.704-244.48h65.536z m33.28 123.648l16.384-61.696h-32.768zM641.024 261.632v177.664h46.08v67.072h-154.112v-67.072h45.568v-177.664h62.464zM739.328 311.552h66.048l13.824-49.92h66.816l-72.192 244.48h-80.896l-72.704-244.48h65.536z m33.28 123.648l16.384-61.696h-33.024zM512 736L65.024 498.176 0 626.432 512 896l512-269.568-65.024-128.256L512 736zM0 141.568l65.024 128.256L512 32l446.976 237.824L1024 141.568 512-128 0 141.568z"  horiz-adv-x="1024" />

    
    <glyph glyph-name="bianyuanjisuan1" unicode="&#59101;" d="M702.836364 660.945455c-53.527273 58.181818-132.654545 93.090909-218.763637 83.781818-104.727273-11.636364-190.836364-86.109091-221.090909-186.181818-4.654545-18.618182-9.309091-37.236364-9.309091-55.854546-125.672727-18.618182-221.090909-132.654545-204.8-265.309091 11.636364-111.709091 102.4-200.145455 211.781818-211.781818 9.309091 0 18.618182-2.327273 27.927273-2.327273h34.909091c18.618182 0 34.909091 16.290909 34.909091 34.909091s-16.290909 34.909091-34.909091 34.909091h-34.909091c-97.745455 0-174.545455 79.127273-172.218182 176.872727 2.327273 65.163636 44.218182 123.345455 102.4 151.272728 13.963636 4.654545 27.927273 9.309091 41.890909 11.636363h27.927273c20.945455 0 34.909091 18.618182 34.909091 37.236364v13.963636 13.963637c0 9.309091 2.327273 18.618182 4.654546 27.927272 16.290909 74.472727 76.8 132.654545 153.6 146.618182 67.490909 11.636364 130.327273-13.963636 172.218181-58.181818 13.963636-13.963636 37.236364-16.290909 51.2-2.327273 9.309091 13.963636 11.636364 34.909091-2.327272 48.872728zM740.072727 141.963636l-186.181818 18.618182c-11.636364 20.945455-34.909091 34.909091-60.509091 34.909091-37.236364 0-69.818182-30.254545-69.818182-69.818182 0-37.236364 30.254545-69.818182 69.818182-69.818182 25.6 0 46.545455 13.963636 60.509091 34.909091l186.181818 18.618182c9.309091 0 13.963636 6.981818 13.963637 16.290909 2.327273 9.309091-4.654545 16.290909-13.963637 16.290909zM593.454545 249.018182l109.381819 153.6c23.272727 0 46.545455 11.636364 60.509091 34.909091 18.618182 32.581818 6.981818 74.472727-25.6 93.090909-32.581818 18.618182-74.472727 6.981818-93.09091-25.6-11.636364-20.945455-11.636364-48.872727 0-69.818182l-76.8-169.890909c-4.654545-6.981818 0-16.290909 6.981819-20.945455 4.654545-4.654545 13.963636-2.327273 18.618181 4.654546zM770.327273 330.472727l76.8-169.890909c-11.636364-20.945455-13.963636-46.545455 0-69.818182 18.618182-32.581818 60.509091-44.218182 93.090909-25.6 32.581818 18.618182 44.218182 60.509091 25.6 93.090909-11.636364 20.945455-34.909091 34.909091-60.509091 34.909091l-109.381818 153.6c-4.654545 6.981818-13.963636 9.309091-20.945455 4.654546s-6.981818-13.963636-4.654545-20.945455z"  horiz-adv-x="1024" />

    
    </font>
</defs>
</svg>
